<svg id="Layer_1" data-name="Layer 1" xmlns="http://www.w3.org/2000/svg" viewBox="0 0 1342.5 408.76">
  <defs>
    <style>
      .cls-1 {
        fill: #a64725;
      }

      .cls-2 {
        fill: #46525d;
      }
    </style>
  </defs>
  <g>
    <path class="cls-1" d="M528.15,459.82a39.08,39.08,0,0,0-6.61-1.93c-1.61-.35-2.08-1.36-2.1-2.83a13.8,13.8,0,0,1,.09-2c.13-.85.28-1.7.41-2.56a4,4,0,0,1-.45-1.14c-1.06-4.76-2-9.55-3-14.31a15.86,15.86,0,0,0-2.74-6.07c-4.32,4.85-5.8,11.87-10.5,16.31-3.7,3.49-8.08,3.25-11.72,5.54.55,2,1.05,3.94,1.44,5.94.28,1.39.29,2.83.44,4.24.07.65,0,1.39.81,1.66.13.05.19.48.23.73s0,.77.12,1a12,12,0,0,0,1.89,2.18c2.56,2.09,5.67,2.3,8.68,2.71s6,.68,9,.8c4.21.17,8.43.19,12.64.18a4.61,4.61,0,0,0,3.32-1.09.87.87,0,0,1,.47-.2c2.21-.27,3.33-2.12,2.52-4.36A8.13,8.13,0,0,0,528.15,459.82Z" transform="translate(-47.1 -75.11)"/>
    <path class="cls-1" d="M697.8,184.75c-4.37-3.44-7.56-8.41-11.12-12.83a5.37,5.37,0,0,1-1-3.62c1.36-12.68-5.61-20.51-15.68-26.05-17.15-9.45-31.68-9.25-48.22-15.59-2.75-7.88,8.4-15.53,6-23.52-1.43-4.73-7.3-6.89-12.14-5.9s-8.86,4.26-12.65,7.43c-18.6,15.5-25.15,13.25-48.79,14.55a47.06,47.06,0,0,0-7.15,1.13c-13.12-8.22-27.47-10.79-42.85-16.54-23.75-8.89-45.39-19.91-71.64-17.1-10.68,1.14-21,5.76-31.17,9.28-6.82,2.34-13.62,4.19-20.52,4.19-17.31,0-32-6.25-48.35-1.42a5.68,5.68,0,0,0-3.73-1.88c-32.39-2.34-64.87-21.61-97.47-21.77-44.51-.22-93.73,29.19-122.89,61.06C64.43,184.24,63.67,236.69,69,297.33c3.36,38.06-38.23,106.79-14.66,141.76,10.29,15.27,22.2,29,39.29,37.19,9.68,4.62,19.78,7.62,30.63,7.59a6.55,6.55,0,0,0,5.68-2.49c.43-.55,1.56-.7,2.4-.79,4.09-.45,8.5.34,11.76-3.24.32-.36,1-.36,1.56-.55,3.91-1.41,5.71-4.23,5.38-8.42a18.72,18.72,0,0,0-15.79-16.94c-5.27-.89-10.52-2-15.69-3.34a8.55,8.55,0,0,1-6.2-6.66c-.82-3.33,1.25-8.61,3.83-9.62.15.92.28,1.83.48,3.1,3.93-2,3.88-5.83,5.77-9.14l1,3.73c.2.1.4.2.61.28,1.47-3.14,2.54-6.06,4.67-8.78a28.66,28.66,0,0,1,2.06,5.21c5.09-26.15,24.29-48.68,34.06-73.59.4-1,.79-2.05,1.19-3.09a128.19,128.19,0,0,0,5.29-25.42,83.32,83.32,0,0,0,.15-11.78,29.4,29.4,0,0,1-10.77,3.57c-2.45-16.52,6.23-33.88,20.47-42.46,13.19-15.77,37.1-29.62,54.4-26.84,6.68,1.08,12.95,6.7,18.76,14.49a124,124,0,0,1,8.52,13.34c9.85,17.62,17.93,38.93,23.69,49.43,1.2,2.2,2.45,4.59,2.15,7.08a4.13,4.13,0,0,1-.21.55c1.61,2.63,3,5.26,4.77,7.89a41.14,41.14,0,0,0,26.37,18.36c-.1.65-.24,1.39-.32,2q.69,3.39,1.46,6.8l2.53-2.38v13.25c.1.4.21.8.32,1.21l2.1-2.31c.41,3.23.78,6.15,1.23,9.79,1.47-1.83,2.41-3,3.36-4.22l.63.47q-.89,8.37-1.76,16.72c0,.16.09.33.14.5l.65.09,4.16-3c-.74,3.94-1.45,7.69-2.19,11.59.19.6.37,1.21.56,1.81l5.1-2.95c-.37,4.29-.66,7.77-1,11.44l5.05-1.91c-1,3.71-1.8,6.93-2.64,10.15l.83.34c1.64-1.92,3.32-3.73,6-3.15l-1.65,9.65,5.05-4,.52.43c-.83,3.39-1.65,6.78-2.65,10.88l6.76-4.36c-.51,5.41-1.59,10.34.41,15.45l3.35-4.1c.14,4.11-.22,7.61,1.71,11.47.71-1.32,1.14-2.11,1.66-3.09.75,1.76.92,3.05,1.65,3.72,3.14,2.87,6.54,5.45,9.67,8.31,8,7.31,16.82,11.79,28.17,10.81,10.06-.87,20.07.63,30.09,2,8.6,1.21,17.5,1.39,24.73-5.17a1.19,1.19,0,0,1,1-.22c4.31,2.15,8.42,2.13,12.31-1,.06-.06.18,0,.28-.06,5.58-1.53,7.27-6.38,3.39-10.67a112.74,112.74,0,0,0-9.86-9.17c-5-4.35-10.8-5.45-17.34-4.28a74.68,74.68,0,0,1-14,1.05A7.24,7.24,0,0,1,427.1,449c-6.71-9.67-9.26-20.6-8.82-32.28.38-10.35,3-20.3,5.9-30.1.51-1.72,1.12-3.42,1.65-5.13,3-9.64,6.33-19.2,9.81-28.68.13-.36.3-.68.44-1a1.89,1.89,0,0,1,.11-.25,56.63,56.63,0,0,1,3.53-7.36c.47-.83.94-1.65,1.46-2.44a34.29,34.29,0,0,1,9.63-10c6.48-4.31,11.91-11.25,16.56-19.45l.16.38a45.29,45.29,0,0,0,1.87-4.16c.61-1.18,1.22-2.35,1.8-3.58,8.28-17.51,13.63-38.68,17.65-53.8l.48,1.23c7,18.4,35.43,23.63,39.1,39.4.91,3.92,1.49,8,3,11.76,2.2,5.54,4.93,10.71,10.33,14.16.42.28.83.58,1.25.87,4.21,2.87,8.06,6.2,13.2,7.67,7.76,2.22.65,10.69-4.89,9.42,4.52,1-8.48,17.67-10.12,18.78-7.43,5-15.42,3.44-23.78,2.28-2.4-.33-4.78-.83-7.17-1.33-3.92-.82-7.82-1.77-11.64-3-4.67-1.47-8.83-2.34-12.7,1.49a2.9,2.9,0,0,1-1.27.73c-5.51,1.29-9,5.28-12.52,9.25-.93,1.05-2,1.95-3,2.94-.22.22-.47.43-.68.67s-.3.42-.46.63A169.78,169.78,0,0,0,502,386c5.29,2.1,49,12.68,46.11,19.8a45.71,45.71,0,0,0,1.7-6.74l.92-.2c.95,2.3,1.89,4.6,3,7.26,1.92-2.25,1.65-4.81,1.49-7.33l.82-.32c1.83,2.48,3.67,4.94,5.76,7.76.37-1.29.71-2.4,1-3.52.23-.85.39-1.72.58-2.57a9,9,0,0,1,2.64,1.22,19.22,19.22,0,0,1,2.52,3.32c.69,1,1.25,2.15,1.87,3.24l1-.14c.22-1.47.43-2.95.66-4.52,3.68.72,4.12,4.53,6.05,7,2.89-2.06.64-5.08,1.77-7.49,3.71.12,5,3.43,7.64,5.94.22-1.72.38-3.08.57-4.61,3.45,1.2,3.72,4.53,4.79,7.26l.77-.12c.24-1.73.48-3.46.8-5.79,1.45,2.51,2.64,4.56,4.31,7.43.41-2.43.72-4.21,1.11-6.5l4.76,6.57c.69-2,1.13-3.27,1.79-5.19-.61,1.78,5,6,6.1.84a60.6,60.6,0,0,0,7.24,1c.28.75.65,1.45.91,2.21a26.79,26.79,0,0,0,6.17,10.63c2.73,2.71,5.43,5.47,8.32,8,2.25,2,2.54,3.93,1,6.38-.81,1.3-1.46,2.69-2.18,4l.59.73,7.18-3.17c-.76,3.26-.74,3.28,5.7,5.43-.35,1.32-.71,2.64-1.07,3.95l.72.54L655,445c-.86,3-1.5,5.27-2.37,8.36l10.44-6.74c-.36,1.54-.7,2.95-1,4.36l.48.29c1.65-1.56,3.31-3.11,5.41-5.08,0,1.6,0,2.67,0,4.34a26,26,0,0,0,2-1.82c1.11-1.25,1.92-3.13,3.3-3.73,6.81-3,7.56-8.84,7.7-15.16.18-8.09-2.77-15.32-6.18-22.36-1.4-2.88-2.74-6-6.25-7.34a16,16,0,0,1-4.13-2.9c-.45-.38-.58-1.16-.86-1.76a7.1,7.1,0,0,1,2,.15,9,9,0,0,1,1.84,1.15l.73-.68c-1.22-1.46-2.42-2.94-3.68-4.36-.55-.63-1.48-1-1.8-1.73-1.42-3.14-2.57-6.41-4-9.54-1.13-2.41-2.21-4.85-3.36-7.27-.76-.18-1.55-.3-2.33-.43-4.72-8.67-13.51-16.32-20.41-22.05-6.32-5.23-12.88-10.32-18.37-16.35-9.41-10.34-19.45-19.92-29.5-29.64-3.34-3.22-6.83-6.7-7.93-11.21-.82-3.4-.13-6.85.92-10.24-.26-.37-.57-.73-.84-1.1a77.59,77.59,0,0,0,42.52-34.72,64.5,64.5,0,0,1,7.22-1.46c14.89-2.08,30.07.65,45.05-.64,8-.69,17-2.2,23.08,3,1.79,1.53,3.39,3.67,5.73,3.86,9,.74,1.54-9.91,2.62-11.78,2-3.52,4.61-1.89,7.35-4.41,4.5-4.14,7.3-3.83,10.93-10,3.24-5.49,4.34-12.1,7.75-17.6a3.47,3.47,0,0,1,.3-.37l-.4-.88C718.45,199.76,707.82,192.64,697.8,184.75Z" transform="translate(-47.1 -75.11)"/>
  </g>
  <g>
    <path class="cls-2" d="M914.32,185.86c0,26.1-23.25,42.77-59.22,42.77H783.17V75.11h71.27c33.34,0,55.27,15.79,55.27,41,0,14.26-7.24,25.66-22.15,32v.66C905.32,156.25,914.32,169.63,914.32,185.86Zm-90.8-78.07v26.53h33.12c8.77,0,13.81-4.82,13.81-13.37,0-8.34-5-13.16-13.81-13.16Zm51.1,72.15c0-9.87-6.14-15.57-16.89-15.57H823.52v30.7h34.21C868.48,195.07,874.62,189.59,874.62,179.94Z" transform="translate(-47.1 -75.11)"/>
    <path class="cls-2" d="M1055.11,194.63v34H939.53V75.11H1052v33.55H979.67v26.1h68v32h-68v27.85Z" transform="translate(-47.1 -75.11)"/>
    <path class="cls-2" d="M1181.21,202.75h-63L1108,228.63h-43.43L1129,75.11h43.2l64,153.52h-45Zm-40.36-65.36-10.74,31.15h39.25l-11-32.24c-4.17-12.28-6.58-19.74-8.12-24.57h-.87C1147.65,117.22,1145.46,123.8,1140.85,137.39Z" transform="translate(-47.1 -75.11)"/>
    <path class="cls-2" d="M1304.89,179.06h-10.31v49.57h-41.67V75.11h70.4c33.12,0,56.8,21.27,56.8,52,0,22.58-12.06,39.25-32.89,47.37l42.32,54.17h-48.9Zm12.94-70.61h-23.69v39.91h23.69c13.82,0,21.27-6.8,21.27-19.3C1339.1,115.68,1331.65,108.45,1317.83,108.45Z" transform="translate(-47.1 -75.11)"/>
  </g>
  <g>
    <path class="cls-2" d="M935,313.66c0,40.65-26.84,65.7-70.56,65.7H832.68v48.58H784.1V249h80.29C908.11,249,935,273.51,935,313.66Zm-49.6,1c0-14.83-9-24-23.77-24H832.17V338.2h29.41C876.4,338.2,885.35,329.25,885.35,314.68Z" transform="translate(-47.1 -75.11)"/>
    <path class="cls-2" d="M1063,397.77H989.67l-12,30.17H927l75.17-179h50.37l74.66,179h-52.41Zm-47-76.19-12.53,36.31h45.77l-12.79-37.59c-4.85-14.31-7.67-23-9.46-28.63h-1C1023.93,298.06,1021.37,305.73,1016,321.58Z" transform="translate(-47.1 -75.11)"/>
    <path class="cls-2" d="M1116,249h52.16l20.19,67.24a375.67,375.67,0,0,1,10.23,44.23h1.28c4.35-18.4,6.65-26.07,14.06-46.53L1237.41,249h31.71l23.78,63.66a352,352,0,0,1,14.31,47.81h1.28c2.56-12.52,7.16-30.42,11.76-46.78l17.9-64.69h51.39l-60.59,179h-39.63l-21-59.31c-5.88-16.88-12.27-37.84-14.83-47.05h-1c-2.3,9.21-8.18,28.89-14.83,47.81l-20.45,58.55h-38.87Z" transform="translate(-47.1 -75.11)"/>
  </g>
  <g>
    <path class="cls-1" d="M822.2,448.32V483h-9.31V470.85c0-2.73.2-6.34.45-8.57l-.25-.1a48.92,48.92,0,0,1-4.21,6.74l-5.4,7.32h-1.63l-5.4-7.32a46.26,46.26,0,0,1-4.31-6.74l-.25.1a74.11,74.11,0,0,1,.55,8.57V483h-9.26V448.32h8.62l11,15.2,10.79-15.2Z" transform="translate(-47.1 -75.11)"/>
    <path class="cls-1" d="M855.82,475.3V483h-26.1V448.32h25.41v7.57H838.79v5.9h15.35V469H838.79v6.29Z" transform="translate(-47.1 -75.11)"/>
    <path class="cls-1" d="M894.24,465.45c0,10.69-6.93,17.53-18,17.53H861.71V448.32h14.66C887.31,448.32,894.24,455,894.24,465.45Zm-9.4.4c0-6.05-3.12-9.61-8.67-9.61h-5V475h5.35C881.72,475,884.84,471.59,884.84,465.85Z" transform="translate(-47.1 -75.11)"/>
    <path class="cls-1" d="M899.69,448.32h9.41V483h-9.41Z" transform="translate(-47.1 -75.11)"/>
    <path class="cls-1" d="M939.2,477.14H925L922.67,483h-9.81l14.56-34.66h9.75L951.63,483H941.48Zm-9.11-14.76-2.42,7h8.86l-2.48-7.28c-.94-2.77-1.48-4.45-1.83-5.54H932C931.63,457.82,931.13,459.31,930.09,462.38Z" transform="translate(-47.1 -75.11)"/>
    <path class="cls-1" d="M986,477.14H971.74L969.41,483H959.6l14.56-34.66h9.76L998.38,483H988.22Zm-9.11-14.76-2.43,7h8.86l-2.47-7.28c-.94-2.77-1.49-4.45-1.83-5.54h-.2C978.37,457.82,977.88,459.31,976.84,462.38Z" transform="translate(-47.1 -75.11)"/>
    <path class="cls-1" d="M1002.14,448.32h8.51l10,14.06c1.78,2.52,3.27,4.65,4.6,6.63l.25-.14a57.4,57.4,0,0,1-.84-11.89v-8.66h9.11V483h-8.52l-10-14.06c-2-2.88-3.47-5-4.51-6.54l-.24.1a61.57,61.57,0,0,1,.79,11.83V483h-9.11Z" transform="translate(-47.1 -75.11)"/>
    <path class="cls-1" d="M1073.79,465.45c0,10.69-6.94,17.53-18,17.53h-14.55V448.32h14.65C1066.85,448.32,1073.79,455,1073.79,465.45Zm-9.41.4c0-6.05-3.12-9.61-8.67-9.61h-5V475H1056C1061.26,475,1064.38,471.59,1064.38,465.85Z" transform="translate(-47.1 -75.11)"/>
    <path class="cls-1" d="M1116.07,475.3V483H1090V448.32h25.4v7.57H1099v5.9h15.35V469H1099v6.29Z" transform="translate(-47.1 -75.11)"/>
    <path class="cls-1" d="M1154.5,465.45c0,10.69-6.93,17.53-18,17.53H1122V448.32h14.65C1147.57,448.32,1154.5,455,1154.5,465.45Zm-9.41.4c0-6.05-3.12-9.61-8.67-9.61h-5.05V475h5.35C1142,475,1145.09,471.59,1145.09,465.85Z" transform="translate(-47.1 -75.11)"/>
    <path class="cls-1" d="M1159.55,467.78V448.32h9.36v19.61c0,5.44,2.42,7.82,6.53,7.82s6.59-2.48,6.59-7.73v-19.7h9.36v19.56c0,10.05-6.14,15.84-16,15.84S1159.55,478.17,1159.55,467.78Z" transform="translate(-47.1 -75.11)"/>
    <path class="cls-1" d="M1196.44,465.85c0-11.19,7.72-18.37,18.91-18.37a20.64,20.64,0,0,1,13,4.7l-4.86,6.49c-2.92-2.18-5.3-3.12-8.32-3.12-5.59,0-9.3,4-9.3,9.9,0,6.24,3.81,10.25,9.5,10.25,3,0,5.4-.94,8.32-3.17l4.85,6.54a20.3,20.3,0,0,1-13.37,4.75C1203.62,483.82,1196.44,476.59,1196.44,465.85Z" transform="translate(-47.1 -75.11)"/>
    <path class="cls-1" d="M1255.46,477.14h-14.21l-2.33,5.84h-9.8l14.55-34.66h9.76L1267.89,483h-10.15Zm-9.11-14.76-2.43,7h8.87l-2.48-7.28c-.94-2.77-1.49-4.45-1.83-5.54h-.2C1247.88,457.82,1247.39,459.31,1246.35,462.38Z" transform="translate(-47.1 -75.11)"/>
    <path class="cls-1" d="M1295.07,456.09h-10.15V483h-9.41V456.09h-10v-7.77h29.61Z" transform="translate(-47.1 -75.11)"/>
    <path class="cls-1" d="M1299.58,448.32H1309V483h-9.41Z" transform="translate(-47.1 -75.11)"/>
    <path class="cls-1" d="M1314.43,465.85c0-11.19,7.53-18.42,19.36-18.42,11.44,0,18.77,7,18.77,18,0,11.19-7.53,18.42-19.36,18.42C1321.76,483.87,1314.43,476.84,1314.43,465.85Zm28.72,0c0-6.29-3.81-10.35-9.56-10.35-6,0-9.75,4.16-9.75,9.95,0,6.29,3.81,10.3,9.56,10.3C1339.34,475.75,1343.15,471.89,1343.15,465.85Z" transform="translate(-47.1 -75.11)"/>
    <path class="cls-1" d="M1358,448.32h8.51l10,14.06c1.78,2.52,3.26,4.65,4.6,6.63l.25-.14c-.65-2.78-.84-6.69-.84-11.89v-8.66h9.11V483h-8.52l-10-14.06c-2-2.88-3.47-5-4.51-6.54l-.25.1c.55,2.23.8,6.63.8,11.83V483H1358Z" transform="translate(-47.1 -75.11)"/>
  </g>
</svg>
