<svg id="Layer_1" data-name="Layer 1" xmlns="http://www.w3.org/2000/svg" viewBox="0 0 1920 512.15"><defs><style>.cls-1{fill:#13666d;}</style></defs><path class="cls-1" d="M574.46,175.9Z" transform="translate(0 -11.84)"/><path class="cls-1" d="M335.47,92s0-.11,0-.2l-.09,0a.5.5,0,0,1,0,.13A0,0,0,0,1,335.47,92Z" transform="translate(0 -11.84)"/><path class="cls-1" d="M571.26,209.37l1.3.91c-.1-.39-.21-.77-.31-1.16Z" transform="translate(0 -11.84)"/><path class="cls-1" d="M335.47,92c0,.19,0,.1,0,0Z" transform="translate(0 -11.84)"/><path class="cls-1" d="M1920,524V307l-5.64-3.72,2.68-2.52-10.53-6.51,6.21-2.88c-.29-2.94-1.38-6.3-.54-6.88,2.15-1.49,5.16-1.74,7.82-2.49V245c-2.84-.38-5.69-.7-8.51-1.18-.75-.12-1.88-.59-2-1.12a5.31,5.31,0,0,1,0-3.61c.41-.74,2.8-1.3,2.9-1.12,2.15,3.71,5.2,0,7.6,1V183h-13.46l2.29-4.4c-2.95,1.3-5,2.59-7.3,3.11a13.16,13.16,0,0,1-6.71,0c-1.29-.42-2-2.7-2.9-4.15,1.58-1,3.07-2.44,4.78-2.78,3.09-.63,7.08-3.71,8.84,3.22.65-2.11,1.21-3.15,1.24-4.19.15-5,3.38-8.84,4.93-13.26,1.25-3.58,3.86-4.47,7.88-7.45l-7.62-4.65.64-1L1920,149V125a18.65,18.65,0,0,1-2.35-.21c-.17-4.87-4.7-4.68-7.92-6.82l7.28-4.21-9.62-5.94L1911,105c-3.19-.69-5.43-.83-7.36-1.69-1.72-.77-3.12-2.3-4.55-3.62a27.82,27.82,0,0,1,1.76-2.43c-2.56-1.45-5.14-2.75-7.52-4.36a3.35,3.35,0,0,1-1.37-2.76,4.5,4.5,0,0,1,2.43-2.68,43.78,43.78,0,0,1,6.4-1.34l-.21-1.67-6-.66c0-.37.09-.75.14-1.13l15.1,1.56c0-.18.09-.36.14-.54l-12.84-2.89,2.79-2.4c-9.3,2.22-9.3,2.22-12.48-.79l13.76-2.31c-.24-.43-1-1.88-1.9-3.38l5.07-1.22a14.9,14.9,0,0,0-1.87-2.76c-2.35-2.1-2.43-6.8-.31-9.12.83-.91,1-2.37,1.55-3.58l-1.29-.68-9.08,3.12,4.7-8-4.8-.91.21-2-5.33-3.16,4.11-5.92-3.43-.18c.47-2,1-4,1.47-6.12l-6.6-5.5,2.66-3.29-4.33,1c-.16-1.33-.34-2.78-.52-4.22l-1.13-.59a38.64,38.64,0,0,0-3.07,5.87c-.48,1.43-1.76,5.85-2.83,6.81s-2.19,1.81-3.56,2.93l4.36,5.41-10.27.64,7.74,6.14-9.29,2c3.41,3.26,5,7.39,10.45,3.86.08,1.77.68,4,.1,4.37a5.64,5.64,0,0,1-4.5.47c-2.39-1-4.39-2.86-6.73-4a30.67,30.67,0,0,0-5.36-1.57l-1,1.57,5.9,4.79c-1.35,5,2.37,3.39,5.75,3.49l-3.29,2,.56.72c2.62-.56,5.62-2.13,7.73-1.33,1.48.56,1.75,4.34,1.9,6.76l4.39,5.28-.63,1.22c-3.29-1.1-6.61-2.09-9.85-3.32-6.7-2.55-10.3-.42-10.69,6.19l8.39,1.28c-.69,2.52-1.38,5-2.19,8l4,1.41c0,.32.06.64.08,1-2.1.47-4.18,1.06-6.3,1.39-5.74.91-11.58,1.34-17.2,2.73-2.32.57-4.17,3.09-7.09,5.39l11.91.94c-.16,1.39-.3,2.72-.48,4.34h6.46c.75,1.56,1.53,3.18,2.9,6l-12.9-.66-1.14,1.12,3.48,1.36-2.55,2.8c2.65.23,4.81.89,6.77.5,6.15-1.22,4.88,4.46,6.3,7.12.54,1-.84,4.64-4.76,4.64a97.13,97.13,0,0,0-17.63,2c-1.81.34-3.28,2.5-6.42,5.06,11.2-1,12.64,8.29,18.9,14.17-2.73,0-5.09.72-6.37-.15-2.78-1.89-4.27-.89-6.49.87-1.75,1.39-4.29,1.84-6.52,2.61-1.39.49-3.06.48-4.23,1.25-3.45,2.31-6.61,5.46-11.09,2.11l-3.32,5.07c6.41.5,11.68,1.22,17,1.21,3.77,0,6.72-2.37,9.78-4.63,2-1.49,5.45-1.87,8.08-1.49,2.08.3,4.29,2.2,5.62,4,.46.62-1.55,3.08-2.86,5.48l3.63,6.29c-4-.42-7.3-.9-10.67-1.08a37.82,37.82,0,0,0-5.88.49c-1.14.13-2.26.34-3.39.52l-11.27,1.73c0,.52.07,1,.1,1.58l3.67,2.6h-7.36c-.25,1.89-.46,3.47-.72,5.37,3.63,1.06,7.44,1.8,10.94,3.28,5,2.1,7.21-2.58,10-4.32,3.6-2.22,6-3.26,8.37.41,1.18,1.81,2.71,3.39,4.13,5.15l-3.4,1.73,5.57,5.14c-2.34,3.75-4.39,7-6.36,10.17L1831,200.47c-.28,2.6.4,6.58-1.13,7.8-2.06,1.66-5.83,1.2-9.81,1.79,5.08,5.6,11.07.32,16,2.71-.19,1.39-.41,3.07-.64,4.79-3.55,2.85-10.12,2.05-11.49,8.81,8.65-1,2.74,4.16,4.33,7.68-5-3.79-8.73-5.32-11.88,0a2.89,2.89,0,0,1-2,1.22c-5,.38-9.74,4-12.1,8.59a6,6,0,0,1-4.52,2.58c-1.53,0-3.09-1.58-4-3.09h-10.57c.56-3.09,6.69-5.23,12.89-4.82l-3.71-4h9.28c-.51-2.75-5-3.91-2.37-7.23a2.46,2.46,0,0,0-1-1c-5.24-1.37-6.1-4.4-3.12-9l3.68,7.92,3.3-4.65-9.68-6.2-.8-3.34c1.84-3.12,3.34-5.64,4.67-7.9l5.29,2.63c4.38-5.89-1.33-7.91-4.67-11.4l5.35-.84c-4.77-2.38-9.1-5.09-8.48-11,2.47-.94,5.25-1.58,7.47-3,1-.65,1.08-3,1.07-4.55,0-.47-1.7-1.26-2.67-1.34-4.23-.35-8.56-.32-7-6.76.17-.71-1.13-2.54-1.63-2.5a51.27,51.27,0,0,0-6.8,1.43c-1.52-6.17-.86-16.57,1.54-19.1-2.52-1.39-2.52-1.39-4.18-15.1-.44,11.63-.89,23.26-1.37,35.87h-5.48l2.48,1.6c.3,1.83.53,3.26.92,5.71L1758,181.89c4,2.27,6.58,3.6,9,5.24.32.23-.4,2-.64,3,1.19,2.69,2.53,5.75,4.37,9.93l1.42-6.33,1.41.07c.14,1.77,1,4,.25,5.19-1,1.6-3.58,2.15-4.94,3.64-1.1,1.22-1.4,3.16-2.39,5.59,3.65-.64,6.07,2.82,8.78-.45.31-.37,2.5.82,4.07,1.37-.53,1.82-1,3.35-1.43,4.88L1777,213l-8.28,5.17,1,1.57L1773,218c2,2.77,1.87,4.52-1.84,5.22-1.2.23-2.25,1.15-3.41,1.67-2.83,1.25-5.85,2.23-7.79-1.16-3.61-6.29-7.84-3.35-12.16-1.25,1,2.2,2,4.29,3,6.48l-6.43,3.77,9.44,6.86c-2.1,2.3-3.84,2.14-9.9-1l-.06,1.33c-2.6,0-5.2-.05-7.79,0a13.82,13.82,0,0,0-2.5.55c.32,1.16.41,3.18,1,3.33a54,54,0,0,0,8.87,1.37c2.48.2,5,0,7.49,0l.08,1.64-6.76.65L1746,251h-10.76c.11,1.73.24,3.72.39,5.92a7.28,7.28,0,0,0-2.26.29c-1.06.42-2.63,1-2.8,1.84-.22,1,.4,3,1.21,3.37,2.17,1.08,5.4,2.86,6.86,2,5.27-3.05,7.83,3.44,12.34,1.81.14.45.29.9.43,1.36l-6,8c-.18-.62-.37-1.24-.56-1.85l-11.55-1.24c-.1,1.59-.2,3.18-.38,6.09-1-.3-2.73-.91-4.48-1.26a8.79,8.79,0,0,0-3.54,0,36.71,36.71,0,0,0-4.88,1.85q3,3.24,6,6.49c-.13.45-.26.89-.38,1.34-4.85-2.14-4.68,1.3-5.33,3.84,3.86,3.47,12.75-.12,13.4,9.47l-6-2.25c-1.47,4.07-1.85,8.92-7.47,9.7l2.75,1.08,7.91-.56c-.5,4.43-1,8.56-1.44,12.7l-1.52.14-2.85-8-2.24,10.15c-5.16-5.94-10-2-14.44-2.35l-.46-1c4.43-2.11,4.91-8.9,10.92-9.25.37,0,.65-1.63,1-2.5a10.85,10.85,0,0,1-2.19-1.07c-.25-.2,0-1-.18-1.38a4,4,0,0,0-7.12.41c-1.66,3.31-3.89,4.24-7.44,3.28-1.61-.44-3.49.1-5.3.19-.89-3.25,2.21-7.14,6.4-7.87a126.51,126.51,0,0,0,18.55-4.34c-3.58-3-3.1-9.83-10.2-8.6-1.29.23-3.19-3.08-4.26-4.19l4-5.63c-2.91-2-5.4-3.69-8.11-5.54l7-4.56-5.55-5.47,4.77-3.6-.56-1-5.6.88c-1.92-3.3-5.65-6.67.4-9.94l-8.06-10.45-5.71,7.8-5.49-3.12c-2.79,3.16-4.1,7-1.8,11.55.13.25-.15.73,0,1,.9,1.41,1.88,2.78,2.83,4.17-3.5-.79-6.2,5.11-10.25,1.21-.37-.36-2.64.87-3.72,1.74a19.77,19.77,0,0,0-2.78,3.31c.21,1.93-.17,4.56.88,6.36,1.17,2,3.64,3.2,5.48,4.69-10.41-.25-21.55,1.3-33.16-2.36,3.12-3.84,5.75-7.09,8.39-10.33-.19-.39-.37-.78-.56-1.16l-10.74,2.61c.34-1.24.69-2.48,1.11-4l-4.49-1.55,10.81-4.71-8.9-7.82c5.84-1.18,11.2-2.36,16.6-3.31,3.73-.66,5.25-2.72,4.9-6.84l-3.75.7c-.55-1.53-1.1-3.06-1.8-5,4.17-.64,8.35-1.44,8-7.17l12.2.8c-.51-2.69-.9-4.79-1.53-8.11-7.22,6.76-14.59,2.73-21.76,2.45l4.1,4.44-18.22-.84c1.88-.66,2.63-1,3.41-1.19a7.57,7.57,0,0,1,2.71-.66c2,.22,3.45.17,3.35-2.46,0-.11,2.32-.3,3.56-.46l7.44-3.23c-.06-4.06-2.82-5.79-7.38-3.76-2.53,1.12-5.15,2.43-7.83,2.7-1.81.19-3.8-1.26-5.71-2l.37-1.35,4.42-1-5.18-4,13-1.33-.14-1.81-6.2.51,7.37-10.09h-20.47l-.16-1.51,7.83-1.81c0-.26,0-.51,0-.77h-8.77l4.87-6.42-4.8-6.51,9.13-3-10-12.88c-5.31,1.16-13,.25-12.57,10.23l-6.49-1.14c-.56,5.44-1,10.08-1.61,14.71a4.13,4.13,0,0,0-2.25,1.26l9.47,2.48c-.07.41-.13.81-.2,1.21h-18.58c-1.65,5.31,4.28,3.11,5.55,5.42-1.49,4.44-4.85,3-7.78,2.48s-5.74-1.15-8.82-1.78a11.91,11.91,0,0,0,11,7.95,43.45,43.45,0,0,1,9.53,1.81c1,.27,1.59,1.75,2.37,2.68l-2.66,1.3,13.54,3.44-4.22,2c1.3,2.83,9.8-1.82,6.24,5l-29.81-3.43c3.38,4,5.44,7.9,8.68,9.74s7.6,1.53,11.4,2.15c-.4.81-.92,1.89-1.4,2.87l-15.41,3.41c0,.61,0,1.23,0,1.85,2,.17,4,.43,6.06.47s4-.16,6.47-.28c-2.07,2.11-3.51,3.63-5,5.07-.31.3-1,.62-1.29.47-6.06-3.23-13.37,1.75-19.31-3-1.26-1-3.68-.62-5.58-.81-3.73-.39-7.47-.74-11.35-1.12-.42,1.92,3,6.24,5.71,6.1,1.56-.08,3.16-.66,4.66-.46,4.34.6,8.64,1.49,13.57,2.37l-2.54,3.26c3.14.14,5.94.18,8.73.42,2.07.18,6.18,3.55,6.34,5a48.06,48.06,0,0,1,6.9.15c1.32.2,2.51,1.31,3.75,2l6.68,4.78c-.4.8-1.06,3.19-1.66,3.17a35.28,35.28,0,0,1-6.87-1.37c.53-2.65.85-4.29,1.17-5.92-3.54.22-7.39,3.13-10.43-1.21,1,3.78-3.07,4.54-4.61,5.23-2.16,1-6,.43-8-1-3.27-2.34-5.71-2.52-8.81-.22-.72.53-2.15.08-3.31.08l-1.68,4.36,4,8.78c6.14.26,13.42.54,20.7.9,1.19.06,2.37.52,3.56.65a16.63,16.63,0,0,0,5.66-.18l15.8,1.95c.82,2.31.38,4.07-3.85,4.35-4.61.3-9.16,1.5-14.52,2.45l1.9-3.52H1576c-.19,1.44-.34,2.62-.41,3.19,5.55,1.59,11.32,2.87,16.8,4.91a104.81,104.81,0,0,0,27.13,6.44c1.48.13,2.85,1.55,4.27,2.38a25.82,25.82,0,0,1-3.66,2.91,6.19,6.19,0,0,1-3.38.59c-5.15-.53-10.28-1.21-16.08-1.92l3.69-2.77-16.06-3.59,2.51,4.87-.75,1.13-11.35-3.61-.85,1.18,7.61,4.92L1574.79,306c-2.54-2.35-4.52-5.65-7-6.13-2.86-.55-6.21,1.42-9.35,2.3a17.91,17.91,0,0,1,.88-5c.8-1.83,2.39-3.32,3.89-5.31-1.7-.87-2.93-2.09-3.93-1.92-3,.5-6,1.59-4.85-3.56,0-.21-3-1.61-3.26-1.31-3.27,3.86-7.29,2.56-11.3,2.15-1.06-.11-2.21.7-3.33,1.17l0,0c-2.37-.17-4.71-.36-8.45-.66l8.68-4.48-3.61-3.22c0-3.16-1.89-4.95-4.66-3.69-4.48,2.05-6.61-1.09-9.71-3l32.25-10-.1-.59-20.23,3-.66-2,21.09-10-11.85-3,4,4.72-17.31,7.68-1.12-1.5,1.64-5.81-.57-.25c-.55,1.22-1.68,2.51-1.55,3.65.64,5.3-2.37,6.46-7,6.44l7.34-12.07h-2.42l-4.42,7.6-1.43-.59c-.16-2.54-.32-5.07-.5-8-3.8.7-8.15,1-8.74-5.41l4.46-.91,0-.59c-1.52-.07-3.48.41-4.43-.36s-1.33-2.83-1.73-4.36c-.26-1,.13-2.23-.28-3.12-.5-1.07-1.51-2.62-2.34-2.66a4.81,4.81,0,0,0-3.5,1.83c-3.66,5.27-3.7,5.33-6.91,2l-12.42-2.43.12-1.9,6.42-.34c-1.25-3.26-2.36-6.18-3.58-9.39,3.49,2.32,6.89,4.2,10.83,2.82.22-.64.45-1.28.68-1.93l-25.56-11.26c.22-.91.66-2.83,1.1-4.75l2.07-.75c.56,1.55,1.13,3.09,1.69,4.64l1.35-.16c.5-7.84,5.28-5.74,10.07-5.55l-4.27-5.33c3.42-3.57,7,.75,11.61-.91l-4.73-8.28c2.65-1.31,3-3.92.12-5.3-3.22-1.55-5.6-3-5.69-6.88,0-.51-.85-1-1-1,1-2.94,1.82-5.27,2.8-8.11q2.17,6.85,4.32,13.65l1.25,0,3.24-7.08c-4-2.6-5.13-9.66-11.79-8.41-.78-3.65-1.46-6.87-2.21-10.39,6.83-.39,4.14-7,6-10.9a9.53,9.53,0,0,1,.5-.95c1.08,1,2,2,3.16,2.89,1.28,1,2.67,1.84,4,2.75,3.73-7.17,2.06-11.92-7.4-18.84l9.57-1.89-12.74-10c2.53-4.27,2.42-4.78-2.4-10.85,6.31,2.8,10.29-.16,13.66-3.34.2-2.28.67-4.19.4-6-.18-1.24-1.56-3.41-2.12-3.32-6.14.94-10-2.72-14.22-6.82h4.73c-2-3.34,1.22-8.93-5-9-1,0-7.26-1.47-4.88,4.8-6.44-1.43-7.49,4.17-10.16,7.52-.28.34,1.72,2.52,2.75,4-4.45,5.49-11.57,6.51-18.19,8.53-3.45,1-6.43,2.47-7.46,6.85l5.18.88c-.26,1.95-.49,3.8-.83,6.46,4.25-.76,8-1.51,11.68-2,.65-.09,1.45.92,2.18,1.42-1,1-2.25,3.09-3,2.93-4.66-.95-7.6,1.06-10.26,5.48l4.85-3c1.57,5.05-1.2,11.32,6.29,15l-2-6.55,4.54-3.18c.74,2.76-4.18,6,2.52,6.67-4.21,2.89-4.74,8.34-10.64,10.12a15.23,15.23,0,0,0-.93,4.42c0,1.66-.23,4.23,3.21,3.47.84-.18,2.12,1.63,4,3.19l2.6-5.85c5.43,3.74,6,7.54,4.35,11.3-.52,1.21-3.52,1.37-5.82,2.16,0,.1,0,.91.12,2.14l-3.32-1.43-3,9.51,4.88-4.28c3.62,4.81,2.86,6.42-2.67,8.28-2.51.85-4.42,3.33-6.83,4.63-2,1.05-4.43,1.12-6.33,2.21-1.4.8-2.26,2.56-3.36,3.89l4.78,2.56v3.94a29.06,29.06,0,0,1,5.42-.79,3.85,3.85,0,0,1,2.9,1.65c1.17,2.7,1.9,5.59,2.8,8.4l1.49.26q3-6.17,6.08-12.31l1.25.08c.26,2.61.53,5.22.89,8.82-3.39,3.69-7.39,8.44-11.92,12.61-.81.74-3.85-.95-5.85-1.52.11-.44.21-.88.32-1.31l-9,3.34-1.12-.61c1.25-2,2.51-4.07,3.73-6.12.5-.84.89-1.75,1.34-2.62a10.13,10.13,0,0,0-2.52-.81,25.64,25.64,0,0,0-3.79.43c.53-1.67.93-2.94,1.45-4.61l-6.62.54-1.24-1.11,5.35-9.07h-4.17l2.13-7.51-8.39-7,3-2.8c-1.59-2-7.64.89-5-4.89-.6-.21-1.34-.75-1.77-.57a4.14,4.14,0,0,0-2,1.75,28.48,28.48,0,0,0-1.28,4.24l-1.37,0,2.79,3.08-3.6,1c2,5.5-2.46,6.6-6.58,8.45,1.85,2.12,3.5,4,5.3,6-.58.39-1.12,1.06-1.59,1-5.5-.51-9.67,2-14.22,4.77-2.39,1.44-6.64-.2-8.6-.35-4.09-6.33-11.46-5.08-14.59-10.39l-1,1,1.46-2.49-5.84-1.26c.51-2.5.55-5,1.51-7,2.21-4.65,9.75-7.64,14.92-6.32a7,7,0,0,0,2.91.55c.93-.18,1.71-1.06,2.56-1.63-.57-.79-1-2-1.74-2.32-4.65-2.14-4.86-3.14-1.79-7.38,1-1.34,1.32-3.15,2.5-6.12-8.73,2.39-15,1.75-14-7.45l-9.67.48a50.37,50.37,0,0,0-.1-5.11,3.6,3.6,0,0,0-2.13,0c-.54.33-1.14,1.74-1,1.9,1.78,1.67,1.48,3.38-.71,3.37-1.36,0-2.79-2.08-4-3.4-.28-.31.23-1.33.4-2.11-11.35-.29-11.58-.17-12.88,6.4l-4.84-.62c.62,1.84,1.13,3.39,1.76,5.26l-4.11,1c-2,7.22-2,7.22-4.17,7.24l10.94,4.65-5.2.87,3.33,3.7-4.65,1.33,10.15,10.81-5.48,2.56,4.6,4-.1,1.33c-4-.61-8.23-.53-11.87-2-4.71-1.88-8.84-.41-13.16.53a2.53,2.53,0,0,0-1.15,2.22c.34,1.09,1.16,2.6,2.07,2.85,3.22.88,6.56,1.31,9.85,1.91l0,1.29h-23.31l7.28,5.08c-2.2,1.44-4.14,2.72-7.25,4.78l8.28,1.6c.18,1.65.12,1.5-6.18,4-2.58,1-4.67,3.44-7.27,4.2-3,.89-6.38.67-9.78.94,1.17,4.7,4.44,3,7,2.1,8.17,9.32,1.85,21.2,8.2,31.51l-7-2c6.66,5.45,6.66,5.45,6.07,9.62l-3.26-1.82c3.42,4.64-.74,5.27-3.07,7.2-.15-1.67-.29-3.19-.55-5.94L1293,278.34l-1.28-.6,3.54,4.84-9.11.77,7.1,5.18-7.09,1.62-.53,1.9,10.54,5c-7.6,4.13-10.82-5.12-18.1-3.09l6.07,5.22-.52,2.35H1290L1285,304.7h16.1c-1,3-1.7,5.33-2.44,7.63l-1.12-.45,1.65,2.44-.59,1-12.8-3.77c-.17.56-.35,1.12-.52,1.67l8,4.54-11.06,6.6-.91-2.18c-4.69,3.68-7.07,1.46-8.2-4.05-1.29,1.18-2.46,1.75-2.76,2.63-1.41,4-3.28,8-3.55,12.12-.15,2.41,2.4,5,4.22,8.41-3-.77-5.68-2.29-7.77-1.73s-3.28,3.28-4.27,4.37l-7.78-2.54c.65-2.8,1.53-6.56,2.51-10.72-.23-1.18-1-3.07-.88-4.87a7.2,7.2,0,0,0-9-7.35l1.52-6.22c-7.22,3-7.22,3-5.17,7.49-.76.54-1.55,1.1-2.36,1.65s-1.61,1.06-2.66,1.75c.79,1.37,1.49,2.6,2.1,3.65l-3.08,4.22c-.9-.52-.9-.52-1.84-12v11.53c-3.14.06-4.26-.64-4.79-4-.59-3.67.93-10.54-7.2-8.6-.59.15-1.58-1.36-3.06-2.72l5.84-.84,4.68-9.2-5.93-7.94,6.58-5.34-9.16-6.15,9.12-2.64v-.76h-7.8c.51-2.58,1-5.28,1.56-8l1.17.13-3.9-5.08,6-1.95c-4.85-5.77-4.85-5.77-2.45-13.57l-3.3-.37c.68-3.63,1.6-7.35,1.95-11.12.12-1.36-1.16-2.84-3-4.32-.38,4.36-.76,8.72-1.16,13.41-3.23,1.42-6.82,15.25-3.6,16.11,6,1.58,2,4.56,2.08,7.29l-3.38-1.94c.92,4.09,1.43,7.72-5,7.23,5.87,4.58-.81,6.46-1.19,10.12l4.09,2.41-2.82,3.41,8,1.61c-.06.4-.11.79-.16,1.18h-10.25c1.78,2.8,3.29,4.72,4.25,6.88.69,1.54.63,3.41,1,5.6l3.47,1.92-.21.64-4.08-.63c.14,1.22.27,2.33.35,3-1.61-.1-3-.09-4.37-.28-3.95-.57-3.51-4-3.54-6.46-.13-9,.34-18,.21-27,0-2.29-1.43-4.57-2.85-7v55.22c-6.64,1.4-6.65-3.71-8.36-7.62h-8c1.39-4.23.9-7-5.45-6.46-2.05.18-4.44-3.48-6.68-5.39l.83-1.16-8.94,1.15c-.38-4-.72-7.58-1-10.23l10.6-1c0-.56-.07-1.12-.1-1.68l-8.76-.52c-3.88-7.2,3.76-4.53,6.75-7.13l-7.55-3.21c5.83-2.15,11.72-3.06,11.73-10.22l-6.35.92c1.12-2.09,1.77-3.28,2.41-4.47l-6.81-4.38c3.57-5.37,2-9.59-3.53-13-1.12-.67-1.32-2.86-2.14-4.79-1.88,3.82-3.7,7.5-5.91,12l1.94,2.72-7,.45,5.46,4.66-5.39,1.08-.55,1.2c1.62.94,3.24,1.9,4.88,2.82.78.44,1.61.81,2.41,1.21-1,.46-2.36,1.57-3.12,1.28-2.27-.88-4.31-2.37-6.5-3.48a9.38,9.38,0,0,0-2.62-.4c-1.06,3.06-1.88,6.12-3.16,9a83.48,83.48,0,0,1-4.47,7.68l2.73,3.89-8.81.71,7,5.09-7.13,1.6c1,2.14,1.69,3.66,2.6,5.63l-8.69-2.88-.87,1.43,5,4.45c-.91,2-2.56,4.39-3,7-.49,2.77.15,5.75.32,9.14l-3.63,1.62c-.08,1.13.07,3.1-.27,3.19-2.09.54-4.75,1.52-6.32.68-1.8-1-6-1.22-4-5.91.51-1.18-2.76-4-4.56-6.42l.62-1.06-3.91,3.52-3.07-2.14-4.72,9.31,3.08,3.31-9.57.71,7.48,5.41-8.72,1.74c2.63,2.12,4.18,4.36,5.91,4.52,2,.17,4.14-1.59,4.14,2.39-6.22,3.55-9.35-5.43-16-3.65,2.24,2.47,4.22,4.63,7.15,7.85,1.75-.26,4.92-.85,8.12-1.11a4.18,4.18,0,0,1,2.87,1.34c1,1,1.58,2.43,2.93,4.65a6.51,6.51,0,0,0-.66,2.29c-.42,6-2.4,7-7.8,4a39.05,39.05,0,0,0-5.16-2c-.29.59-.57,1.19-.86,1.79,1.72,1,3.51,1.85,5.13,3a9.86,9.86,0,0,1,1.85,2.34c-.82.38-1.84,1.28-2.44,1.06-3.11-1.17-7.36,1.95-9.67-2.78-.45-.92-3.17-.74-5.45-1.18l2.67-4.08c-4,.2-9.64,1.87-10.82.25-2.18-3-1.71-7.87-2.37-12.12a70.17,70.17,0,0,0,7.35.36,37.14,37.14,0,0,0,5.54-1.16l-.15-1.73h-10.65c-4.85-9.46,5.09-5.76,8.17-9.27l-7.42-3.19-.33-1.35c3.13-.86,6.9-.95,9.22-2.83s3-5.45,4.4-8.29l-1.23-.73-7.91,2.42c1.69-2.71,2.82-4.53,4-6.39l-8.48-5.29,3.18-5.12c-3.82-2,.19-10.11-7.62-9.65l3-4.07-5.47,2.13,3.31-5.79-6.73.6c.26-4.33.37-4.4,7.95-5.12h-9.48c1.31-4.78,2.49-9.07,3.54-12.91l-3.09,2c0-8.75-.28-16.72.08-24.66.35-7.67-.61-15.27-.66-22.91-.06-8.22,0-16.45,0-24.67H1053v85.71l-16.28-.85-.06,1.38c14-1.25,16.4.48,16.23,10.07a22.06,22.06,0,0,0-3.66-2.39,6.5,6.5,0,0,0-2.52-.23c2,2.19,4.75,4.09,5.93,6.7,1.61,3.54-1.8,5.44-4.41,7.35l3.39,2.8-4.73,4.35,6,5.63-.74,1-10.84-5.05-1.15,1.68,8.29,8.49c-1.3.48-5.34,2.45-5.62,2-1.83-2.88-2.85-6.26-4.43-10.24l-5,.64-1.1-8.82c-4.52,3.16-5.7-1.18-6.63-3.33-1.2-2.76-2.43-4-5.29-3.48-2.55.48-5.94-.39-6.3,3.87-.06.71-1.09,1.34-1.67,2l-2-2.53-7.45,5.65c.22.36.43.73.65,1.1l2.67.29c2.12,4.33,3.92,8,5.77,11.73-4.67,2.95-8.15,2.43-11.41-2.36-4-5.88-8.43-5.87-13.33-.11l3.56,7.85-7.4,4.61c3.44,3.41,6.71,6.66,10.36,10.3-3.83,3.62-6.88-.66-10.4-2-2.21,1.54-4,5.5-7.67,1.87-.34-.33-2.19.88-4.62,1.92,1-3.62,2-6.49,2.64-9.43a19.59,19.59,0,0,0,0-4.46l-3.7,1.11-.92-.69,4.19-4.25-4.45-.92c-.9-3.27-1.71-6.23-2.51-9.18l-5.78,5.51,4.54,2.87-.21.74-4.44-.36,2.75,3.24c-.71,2.08-1.32,3.87-1.67,4.91-1.92,1.79-3.75,3-4.8,4.75-.33.54,1.56,2.31,2.27,3.61,1.88,3.42,3.67,6.89,5.73,10.78-4.43-1.5-7.63-2.69-10.92-3.53-.31-.08-1.18,2-2.08,3.62l11,1.26c-.87,3.35-1.66,6.4-2.54,9.81-5.7-4.54-10.9-.16-16.62.7l.18,2.29,16.38,1.47c.16,1.71.35,3.83.55,6-2.15-.07-4.31-.08-6.45-.23-2.4-.16-4.79-.46-8.08-.79l9.24,11.42c-6.18.92-11.88-1.91-15.67,3.85,7.79,4.32,13.55-1.47,20-3.57v7.86l-24.07,5c-.14-.52-.27-1-.41-1.56l5.27-1.86c-1-5.34-5.72-.82-8.12-3.2l3.88-4.55-4.55,2.6c.73-5.38,1.36-10.05,2-14.66-.24-.13-1.69-.52-1.74-1-.38-3.85,1.06-6.56,5.05-7.87,1.38-.46,2.38-2.08,3.55-3.17l-.89-1.44-6.08.4c-5.48-6.43.71-13.69-1.55-21-2.11-6.82-.45-14.81-1.3-22.31-.26,5.23-.52,10.47-.79,16h-8.5c-.42-2.19-1-5-1.51-7.82-4.2,1.46-6.65,0-8.32-4-.55-1.33-3.08-2.87-4.43-2.65-3,.49-5.93,1.92-8.77,3.23-.75.34-1.08,1.6-1.6,2.44l-3.22-2.9c-2.19,1.75-4.83,3.84-8.39,6.66l5.73.79-1,.62c2.13,3.29,4.27,6.57,6.81,10.48l-10.08,1.38c-.73,3.19-2.87,5.54-7.61,3.45v3.94h6.76l.72,1-3.16.81.93,1.22,7.57-.68-1.67,5.24L901.06,362c.09.58.17,1.16.26,1.74l-5.44.81c.42,1.25.85,2.56,1.31,4l7.91-1.27c-3.78,6.66-8.18,5-12.38,4.34-1.82-.3-3.69-.22-5.5-.52-1.07-.18-2.43-.46-3-1.21-2.82-3.48-5.4-4.47-9.28-1.07-2.42,2.13-5.83,3.13-8.8,4.63l-1-1,3.42-5.06-13.77-.71c0-.24-.07-.69-.13-1.15-.7-5.42.69-8.34,6.9-6.08.5.18,1.62-1.34,3.4-2.91-2.56-1-4.37-1.61-6.13-2.36a17.8,17.8,0,0,1-2.23-1.37c.47-.67.93-1.35,1.41-2,.77-1.09,1.54-2.16,2.28-2.06,2.2-.22,4.57,0,6.53-.82,1.23-.51,2-2.46,2.69-3.9.9-1.89,1.52-3.92,2.66-7l-10.85,3.1c2-3.31,3.34-5.47,5-8.2H861c.22-1.37.37-2.28.54-3.32L855,327.7l5-7.17c-.53-1.62-6.21-2.81-1.32-6l-7.52-6.41,2.12-1-5.36-5.26-3,5.95,1.16.5-7,9.56,4.22,4.56-9,.48c-.2.37-.39.75-.59,1.13l7.2,5.3-8.59,1.88c-.12.63-.25,1.27-.37,1.9l8.91,4.13c.32-.44.63-.89.94-1.33.24,1.24.47,2.47.72,3.81-7.31,3.3-11-6.75-19.5-4.37l8.42,6.19-11.24,5.17-1.66-1.09c.58-6.44,1.19-12.89,1.71-19.34a17.43,17.43,0,0,0-.45-2.38c-.27-4.3-.68-8.6-.57-12.89,0-1,1.86-2.06,3-3.21l-3.09-1.38-.29-1.27,6.49-2.26c0-.24,0-.47,0-.71h-6.1c0-5.75,0-11.17,0-16.58,0-2.67.3-5.33.22-8-.17-5.19-.25-5.18,5.1-8.25-1.18-.08-1.83-.14-2.49-.17s-1.28,0-2,0a3.86,3.86,0,0,1-.54-1.3c-.06-3.76-.56-7.62.19-11.22.28-1.35,3.52-2.09,5.55-3.18l-5.49-.69-.21-1,4-1.52c-5.74-1-5.65-10.25.2-12.89,2.19-1,4.59-1.54,6.59-3.44l-10.86,2.65c-.76-4.76,1.94-6.5,8.61-6.22l-8.54-.82c-1.39-5.2-.61-5.77,9.19-5.8l-7.07-1.67c.56-1.69,1-3,1.57-4.7L819,215.5c1.87-5.3,4.83-6.24,12.86-4.09l.08-1.48-12.73-.76c-.9-5.62,1.11-6.39,14-5.57L818.4,202c-2.38-10.8,3.51-18.07,14.8-22.9-3.94-.28-3.94-.28-15.47,9.1.94-6.68-2-13,2.2-18.65l-1.42.16V154.25c-2.86-1.39-2.46-8.34,2.2-12.21l-4.21-.23c2-8.83-.36-17.56-.2-26.43A150,150,0,0,0,813.86,88v62.08l-3.26-.51,4.46,7.47-3.25-.47c.62,5.31,1.23,10.56,2,16.93l-5-3.49-.37.34c1.2,1.4,2.4,2.79,4.25,4.92l-4.49-.91c1.34,3.1,8.72,4.7,2.79,9.47l2.7,8.43-1.29.64-4.21-3.62c5.66,5.39,4.59,12.31,5.27,20.44-8-7.27-15.89-5-23.68-2.18,3.24-.38,6.53-.57,9.73-1.18A11.29,11.29,0,0,1,811,210.63c1.86,2.52,1.64,6.57,1.31,10.42l-6.72-5.28L800,220.18c9.48-2.05,13.27,1.61,12.84,12.35l-4-1.1c3.35,2.92,5.63,6.07,3.17,11.06l-4.9-1.73c5.61,6.17,6.44,9.55,4.58,18.14L800.43,256c3.44,5.12,13,3.1,11.19,12.28L802.14,265c12.4,7.25,9.29,5.26,10.06,19.06.16,2.93,0,5.89,0,10-3.09-1.32-6.14-1.69-7.16-3.33s.28-4.39.7-7.83L802.24,280c-.63,2.3-1.38,5-2.22,8.11l-4.58-2L802,296.83l-1.24,1.1-4.21-.63c-.6,4.26-1.18,8.35-1.8,12.8h-9.34c-.2-7-.38-13.75-.57-20.48s-2.37-13.32.7-20c-.55-2.12-1.67-4.63-1.81-7.19-.7-12.57-1.29-25.14-1.62-37.72a146.92,146.92,0,0,1,.69-18.05c.14-1.43,2.3-2.66,3.43-3.86-9.62-2.16-1-10.88-5.89-15.65-.32,4.42-.79,8.43-.85,12.45-.13,9,0,18-.14,27,0,1.77-.86,3.52-1.56,6.17-.06-.08,1.3.91,1.32,1.92.08,6.84-.14,13.69-.2,20.54a6.07,6.07,0,0,0,.53,2.48c1.89,4.24.85,9.42-1.89,11.4.93,3.17,2.31,6.06,2.53,9a118.76,118.76,0,0,1,0,16.66c-.1,1.6-2,3.07-3.07,4.57,3,.31,4.09,2.76,2.58,5.88s-3.64,1.65-6.42.7c-4.14-1.42-8.9-1-13.68-1.44a35,35,0,0,0-.36-4c-.55-2.89.64-3.85,3.43-3.71a57.37,57.37,0,0,0,6.14-.3c.12-.71.23-1.42.35-2.13l-8.13-3.65-.56-1,6.45-.91-2.28-1.67c2.49-.46,6.31-.12,7.18-1.56,1.75-2.9,5.85-5.57,3.87-9.63l-7.69.42,2.81-6.33-4.95-.29c.3-1.24.53-2.25.67-2.82l-5.54-1.64,3.32-6.95L761.4,258c.44-1.78,1-3.81,1.47-5.88l-6.6-5.49c.55-.7,1.23-1.55,1.9-2.41l-.7-.81-3.32,2.3v-5.47l-1.13-.48c-1.16,1.85-3.44,3.81-3.29,5.55.45,5.13-2.39,7.54-6.53,9.77,1.39,1.66,2.69,3.23,4.63,5.54l-10.63.95,8.11,5.64-9.45,2.63c3.48,2.7,5,6.53,9.35,4.26.23-.12,1.55,1.87,2.64,3.22-7.86,4.2-11.62-6.49-19.69-3.65l6.62,5.3c-.36,3.79-.36,3.79,6.41,3l-3.91,2.88c.37.31.87.86,1,.79,2.18-1.29,4.19-3,6.51-3.89,1.38-.55,3.23,0,4.84.23a17.28,17.28,0,0,1,0,2.83l3.69,1.3c-.27,2.68-.52,5.17-.78,7.88l-3.12-1,2.6,2.89c-.19.52-.39,1-.59,1.55l-14.56-4.21c-.23.62-.45,1.23-.67,1.84l8.89,5.05-.06,1.54-6.48,1-1.34,6.8,2.82,1.19c-.39,1.45-.79,2.91-.93,3.45l-23.91,1.09,5-7.07c-1.75-1.58-5.32-3-1.66-5.8-3.26-4.56-10.68-5.09-9.12-13.17-4.75,5-2.78,13.12-10.33,15.4l4.88,5.37-9.61.67,2.37,3.26c-1.6,1.06-3.08,2.5-4.86,3.12-5.33,1.85-9.27-1.11-9.48-7.16-.1-2.9.49-5.83.81-9.19,5.38,2.44,10.32,2.53,15.81-2.32H684c-.15-.76-.27-1.2-.33-1.65-.87-5.89.73-9,7.4-6.75.56.18,1.68-1.37,3.43-2.87l-9.64-3.83,7.16-2-2.67-1.76c2.36-.31,5.85.23,6.86-1.1,2.25-3,5.49-6.17,4.28-11.11l-7.77,2.58-1.15-.93,4-6.69-5.14-.85c.07-.77.16-1.69.27-2.87l-6.31-.58,4.73-8c-.78-1.25-5.54-2.49-1.26-5.91l-7.3-6.39c.47-.54,1.19-1.36,1.13-1.28-1.34-1.85-2.24-3.2-3.26-4.45-.36-.45-1-1-1.5-.91s-1.31,1-1.22,1.23c.73,2.31-4,3.83-.9,6.4-2.28,2.76-4.56,5.51-7.12,8.62l4.48,4.92h-9.51l-.85,1.75,7.64,5.17-8.91,2.36c-.1.64-.19,1.29-.29,1.93l8.88,4,1.21-1.4c.12,1.33.71,3.58.26,3.81-1.32.68-3.31,1.16-4.57.62-3-1.27-5.59-3.31-8.5-4.77a21.79,21.79,0,0,0-4.71-1.16c-.25.56-.49,1.12-.73,1.67l6.2,5.07c-1.07,4.7,2.18,4.17,6,3.45l-3,2.47.67,1.09c2.21-1.46,4.28-3.28,6.7-4.26,1.47-.6,3.46.09,5.22.21-.18.84-.36,1.69-.62,2.85l4.06,1.64c-.11,2.13-.11,4.41-.35,6.68-.29,2.67-.82,5.45-4.58,4.38-2.18-.62-4.17-1.89-6.34-2.55a42.06,42.06,0,0,0-5.75-1l-.43,1.73c2.08,1.17,4.23,2.23,6.21,3.55a12.38,12.38,0,0,1,2.27,2.59,16.2,16.2,0,0,1-3.33,1.44,9.26,9.26,0,0,1-2.69-.1c-.56,2.4-1,4.44-1.47,6.35l2.15,5.4-21.87,1.6c-2.63,6.05-5.12,7.26-12.62,6.2-2.15-7.22-1.18-9.63,5.12-12.81.61-.3,1.09-.83,1.67-1.18,1.24-.73,3.14-2.33,3.66-2,6.18,4.29,6.92-.19,7.86-4.6.21-.95.67-1.84-.07-2.5-1-3-2.64-6-2.87-9.14-.36-4.84-2.25-5.75-6.12-3.62-.47-3.32-.9-6.43-1.33-9.54l-1,1c-1.88-1.62-4.44-2.91-5.44-4.95-1.13-2.29-1.57-4.7-4.68-4.49s-6.49.59-6.28,5.18c0,.51-.67,1-1.44,2.16-.86-1.73-1.51-3-2.36-4.73l-6.69,8.57,3.21.63,5.67,14-7.91,1.67c-.75,2.19-.84,6.47-6.12,4.66v4.35l6,.41-2.18,3.19.76,1.05c2.11-1.31,4.1-3,6.4-3.77,1.07-.36,2.73,1.06,4,2.31-3.06,1.62-6.89,1.82-5.59,6.3l8.81-1.74.4,1.66-5.1,1.61c.43,1.45.86,2.94,1.39,4.73l4.17-2.52c.26,1.5,1,3,.55,3.88-.58,1.16-2.12,2.66-3.2,2.62-3.82-.15-7.84-.3-11.35-1.61-2.07-.78-3.33-3.73-4.51-5.16l-8.85,5.39-1-1.51,5.71-5.23-6.28.82c.12-.76,0-1.35.28-1.59,1.19-1.15,3.71-2.69,3.51-3.21-.93-2.38-2.62-4.48-4-6.68-1.24.94-2.82,1.64-3.6,2.87s-.77,3-1.28,5.29l2.27,3.1-8.91.67c.25-4,.47-7.58.68-10.94l5.43-2.86-5.71-4.49,5.13-3.57c-9.62-2-2.68-8.87-5.64-13.29l6.65-2.34-6-.43-.3-.9,3.68-1.69c-1-1-3.16-2.06-3.37-3.43-1.14-7.64,3.34-10.87,10.81-11.35-.26-.44-.52-.88-.77-1.32l-10,2.08c-.66-4.65.7-5.53,8.53-6.05l-8.58-.76c-1.19-5.44-1.19-5.44,9.29-6l-7.06-1.34c.45-1.59.89-3.17,1.45-5.17l-4.12-1.6c1.91-5.29,5.13-6.32,12.5-4.05,0-.48,0-1,.08-1.44L582,228.79c-.7-5.78,1.73-6.76,13.58-4.59l.14-1.24-14.42-1.62c-2.32-10.28,2.29-17.17,15.62-23.05-7.54-.4-10.79,5.22-16.34,9.55,1.56-7.09-2.94-14,3.54-19.29l-3.53.89c.57-3.19,1-5.86,1.53-8.66-.06,0-1.7-.48-1.67-.7a60.82,60.82,0,0,1,1.39-5.93c-3.15-1.26-2.89-8.39,1.57-12.83h-3.25c-.72-18.15-1.43-36.07-2.14-54l-1.53,0v62.64l-4-1.38c1.54,1.62,2.76,2.49,3.39,3.67s.51,2.48.86,4.49l-2.27-.82c.71,5,1.47,10.3,2.38,16.75l-5.7-3,2.91,3.84-.72,1.09-7-3.65c2.79,2.27,5.73,4.39,8.33,6.86,2.76,2.61,2.22,4.64-1.33,5.38,1.11,2.71,2.25,5.5,3.38,8.29l-1.29.81-2.87-2q2.24,8.52,4.48,17l-1.3,1.07c-6.59-4.83-13.5-5.32-20.76-2.46-.88.35-2.11-.2-3.2-.4,2.18-3.8,4.34-7.6,6.59-11.34,1-1.67,2.19-3.22,3.82-5.6L557.74,202l3.19,1c3.62-8.52,1.88-11.07-7.15-10.79-1.14,0-2.37-.85-3.45-1.49s-1.76-1.51-2.71-2.16c-1.2-.83-2.48-1.54-3.73-2.3,1.55-.24,3.23-1,4.64-.64,5.41,1.35,10.73,3.06,16.09,4.63-2.79-1.71-5.67-3.29-8.34-5.18-2.51-1.79-7.24.68-8.19-4.26a23.94,23.94,0,0,0-3.46.2c-1.65-4-3.27-8-4.83-11.77,3.3-2.25,9,2.36,9.5-4.62l5.86,2.18c.19-2.75,1.35-6.44.31-7.22-2.12-1.59-5.39-1.76-8.24-2.24-1.79-.31-3.66-.13-5.12-1.19l7.95-4.55L539.19,144l1.81-1.45,4-6.59,10.42,1.76.17-.58-9.05-3,1.34-2.35c-2,.8-3.43,1.73-5,1.89-1,.11-2-.94-3.08-1.47.67-1,1.23-2.71,2-2.84a46.14,46.14,0,0,1,7.24-.13l1.81-6.77c-1.49-2-3.79-5.08-5.9-7.92,1.61-1.67,3.23-2.63,3.69-4a39.26,39.26,0,0,0,2-9.5c.11-1.54-1.22-3.19-1.9-4.8l-4.33,3.47c-.85-1.52-1.89-3.38-3.11-5.53,3.1-.58,7.36,1.62,7.67-4.16l-10.15-.62,4.16-5.4-3.48-2.79,1.94-4.46-5-3.13c-2,3.11-4.82,5.81-5.24,8.85-.28,2,3,4.43,5,7.09l-6.69-.81c-.14.38-.29.77-.43,1.16l6.17,5.11-5.65,2,3,6.24c.22,4.17-11.4-5.59-6.72,4.91l-3.5.16c-1.23,6.68,11.3,6.9,6.19,14.75,5.27.57,6.15,2.22,5.15,9.56-.75-.17-2-.12-2.13-.52-2.07-4.75-6.55-4.11-10.43-5.48-4.43-1.56-4.62-.21-4.58,3.21a12.53,12.53,0,0,1-.55,2.75l18.67,1.39-6.34,9.28-1.63-.35,4.26,5.7c-2.1,2.38-4.27,1.85-6.84-.6-4-3.77-5.76-3.43-8.87,1.28-4.95-.38-10.64-3-13.48,4.18,8.54,3.15,17.62,2.08,26.56,3,.55,1.83,1.15,4.09,1.91,6.3,1.09,3.14-.84,4.47-3.28,4.87a17.46,17.46,0,0,1-5.8-.55c-4.78-.9-9.52-1.92-14.34-2.91.34,2.33.58,4.08.86,6,8.06,1.11,8,1.12,10.05,10.13.18.76,1.69,1.23,3.8,2.66-5.47,0-10,.21-14.5-.06s-8.8,1.93-11.1,6.91c4.87.58,9.53,1.22,14.21,1.63,1,.09,2.77-.34,3.09-1,2.67-5.82,9.85-3.48,13.36-8.13.92,1.25,1.59,2.14,2.25,3-4.27,2.49-1.35,5.05-.24,7.73.31.74-.29,2.61-.86,2.8-1.14.37-2.55,0-4.51-.19-.64,1.05-1.64,2.73-2.89,4.82C518,196,513.63,195.1,511.6,198c-1.1,1.55-6.18,1.61-3,5.52a15.94,15.94,0,0,1-3.89.88c-1,0-2.43-1.4-3-1.06-5.05,2.89-10,6-15.35,9.4-6-2.11-6-2.11-5,3.75,3.72.4,7.46,1.35,11.08,1a17.4,17.4,0,0,0,8.12-3.37c5.64-4.1,6.73-4.13,11.92,2l-3.83,4.11c.66,1.75,1.51,4,2.48,6.53-4.22,0-8.22-.46-12.06.13s-8.9-1.61-11.11,4l1.89,2.19-4.63.37c-1.39,7.38-1.89,5,10.46,9.35,1.93-2.31,3.84-4.81,6-7,.47-.48,2.08-.23,3,.15,3.25,1.41,5.83,1.27,8.15-1.89,1-1.39,3.07-2,5.19-3.31.42,3,.77,5.5,1.24,8.86l-4.67-2.6a42.48,42.48,0,0,1-2.28,4.21,21.18,21.18,0,0,1-3.74,4.5,86.8,86.8,0,0,1-7.3,4.77l-1.95-3.31c-1.62,4.3-3.61,7.51-3.93,10.87-.7,7.56-.36,7.59-7.34,7.72,1.1,3,1.1,3,7.3,4.44-2,1.09-3.88,2.72-6,3.11s-4.58,2.81-7.17-.4c-1.62-2-4.74-2.83-7.74-4.49l3.72-3a30.09,30.09,0,0,0,1.82,3.18,37,37,0,0,0,3.26,3.09V255.32c-1.51-3.74-3.18-7.86-5.18-12.78h-4.93c-.09-1.66-.18-3.44-.29-5.61l6.72.79.73-1.48L470,230.36c.18-.73.45-1.78.64-2.55h-9.94L466.4,220l6.68,1.15-5.18-6.37,11.6.7-4.83-7,1-.23c-.37-1.7-.24-4.46-1.2-4.91-5-2.35-6.12-5.6-3.76-10.42.31-.65,0-1.58.91-2.65,1.14,3.64,2.27,7.28,3.81,12.21,1.67-3.26,2.65-5.19,3.83-7.51l-9.58-8-.86,1c-.57-2.86-1.13-5.72-1.69-8.53,1.38-2,6.95-1.88,3.37-6.75-.33-.45,1.17-2.26,1.72-3.24l6.46,4.43c2.86-7.84,2.22-9.7-6-16.1L480.3,156c-2.95-2.46-5.73-4.49-8.12-6.91-.89-.91-.82-2.73-1.27-4.11-.65-1.95-1.39-3.87-1.8-5,2.72-1.25,6.18-2.13,8.57-4.22,1.47-1.28,1.51-4.42,1.69-6.76,0-.44-2.4-.9-3.5-1.64-2.17-1.45-5.75.5-7.08-3.27-.42-1.2-2.17-1.28-.15-3.06.91-.79.05-4.57-1.08-6.3-.59-.91-3.56-.63-5.32-.25-.88.2-1.44,1.85-2,2.68-2.86-4-2.09-26,.7-27.66-.81-1.73-2.06-3.25-2.19-4.87-.51-6.21-.67-12.46-2.11-18.7,0,4.95.32,9.93-.07,14.85-.66,8.41,0,16.82-.45,25.21-.1,1.8-1.28,3.54-2.08,5.6.6,1.42,1.56,3.64,2.8,6.55L436.73,120,433.09,124,440,121.4l-2.87,7.47c2.45-1.48,4.22-3.11,6.25-3.58,1.38-.33,3.14,1,5.36,1.76,1.83-2.76,1.11-4.75-3.67-4.46.79-3.77,1-3.79,9.1-1.35l-3.47,4.48,4.22,1.36c-5.74,7.3-16.52,5.59-22.89,13.26,1.58.54,2.27.78,3,1s1.26.39,2.12.65c-.14,1.49-.27,2.9-.43,4.68l11.22-.59c1.21,1.29.9,2.65-2.35,3.1-2.05.29-4.1.6-5.32.78,1.38,5,2.6,9.42,4.06,14.67,3.13-2.8-1.95-8.19,3.93-8,.19,1.94.39,3.86.73,7.17l-6.24,6.69-1.25-.85V176l5.78,3.14c.67-1,1.67-2.49,2.38-3.56,6.12,1.86,4.9,6.07,3.26,8.6-1.26,1.94-4.93,2.33-7.66,3.46-.54,1.62-1.29,3.89-2.51,7.54l4.18-3.79c3.28,5,3.13,5.36-2,7a5.77,5.77,0,0,0-2.16,1.68c-3.74,4.09-7.47,3.88-11.38-.35-1.33-1.44-3.29-2.3-4.69-3.85-8.13-.5-8.13-.5-8.94-5.53-3.45,2.38-4.56.85-6.56-2.41-2.28-3.73-6.76-6.11-9.69-8.58.55-3.48.95-6,1.57-9.95l7,13.92c1.36-4,2.07-6.57,3.16-9a3.44,3.44,0,0,1,2.57-1.54,27.07,27.07,0,0,1,5.05.71v-3.92l5.75-1.72c-1.93-1.74-3-3.17-4.42-3.88-4.59-2.28-9.29-4.4-14-6.4-3-1.25-3.22-3.23-.39-7.34.6.53,1.15,1.06,1.74,1.54s1.21.9,2.06,1.53c-.72-5.89-3.15-8.3-8.08-9a4,4,0,0,1-2.51-2.75c-.45-2.7-.85-5.84,2.28-7.25.74-.33,2.4,1.36,3.61,2.16a10.07,10.07,0,0,1,1.12,1c2.18.23,1.53-6.09,5.68-1v-8.87c-8.61-4.27-15.43-9.6-18.27-19-2.87,3.15,1.2,8.15-3.43,10.92l1.49,8.37-11.29,3.78c-3.47-9.58-3.47-9.58,3.82-14-.1-1.47-.53-3-.21-4.32s1.39-2.62,2.78-5.09c-7,.83-13,4.14-18.72-1.46l16.87-2.92-8.32-4.94L389,92.88l-5.82-1c.9-1.29,1.75-2.48,2.64-3.75-6.63-2.24-6.91-5.41-.51-12.75l-7.9.85c-1.25-4.82-4.22-5.14-8.18-2.42l-.29-1.29,5.24-1.89c1-2.63,1.75-4.73,2.53-6.83L376,63l-5.81,4.32c-.21-2,0-3.83-.66-5.21s-2.44-2.58-3.72-3.84c-1.26,1.78-5.74-.55-5.06,4.11.11.77-2.63,2-4.38,3.17l7.13,6.72c-.86,1.12-1.8,2.36-2.63,3.46.29,1.26.62,2.67.95,4.09a27.4,27.4,0,0,0-4.26-.76c-3.37-.12-6.75,0-10.13,0L347,80.57l15.35,4.37c-2,2.86-3,5.37-4.89,6.8-2.12,1.63-4.94,2.38-7.53,3.33-1.49.55-3.12.73-4.72,2l12.53,3.09-2.64,3.93,5.17,1.8.3,1.58-7.38,3.67c.12,2.54.23,5.09.35,7.78l-4.9-.57-.76,1.22,4.81,3.89-3.21,2.7,7.35,1c-.68,2.53-1.32,5-2.13,8l12.92,2-5.68,6.9-1-.58,2-3.74-10.3,3.2-2.18-5.64-1,10.79-7.11-.57-.23.68,2.93,1.25-3.55,1.76,7.37-.52c.39,4.9.72,9,1.05,13.22L335.66,166c-.18-1-.48-2.79-.79-4.63l-1.65.39c-1.85-5.34,1.84-7.77,5.13-10.64l-4.46,1.32c1.34-12.08,2.65-23.88,4-36,4.09.64,8.07,2.93,7.92-3-4.32.57-8.48,2.05-11.06-3.4-.72-1.54-4-1.81-5.95-2.85a43.65,43.65,0,0,1-4.45-3.16l8-2.49-4.94-6.42,8-3.3c-2.34-5.44-5-10-11.59-4.28-.43.36-1.27.3-1.93.34s-1.21-.07-2.61-.17c4-2.6,5.25-5.13,2.32-7.7.17-2.27.8-4.31.21-5.9-.26-.72-2.92-.73-4.5-.76-2.05,0-4.1.24-6.57.41,1.23-2.42,2.31-4.52,3.68-7.22h-10.7c1.47-2.22,2.8-4.24,4.42-6.67l-4.63-1.3L310.42,51,308,48l-3.86,3.45-1.41-.76c3.63-3.35-1.77-9.49,6.15-12.32l-10.69-5.66,3.56-2.47-11.63-3.37,7.42-4.9c-5.59-6.09-6,1.3-9.5,4.19.36-5.24.63-9.17.93-13.52l-4-.77-2.7,4,3.27,2.57-7.81,3,5.6,5.07L276.19,29l3,4.35-7.88,8.26a7.42,7.42,0,0,0-3.31.16c-.62.24-1.2,2.88-.72,3.37,2.82,2.86,6,5.4,9,9.43-4.79.2-9.61.83-14.36.47s-6.09,1.23-4.72,4.69l13.47,6.9c-1.06,3.65-3.82,4.33-7.51,3.57-4.39-.9-8.06.06-9.87,3.89,2,2.44,3.52,4.39,5.1,6.33.32.39.72,1,1,1,6.36-.28,5.21,4.74,6.32,10-4-2.46-7-4.57-10.19-6.18-4.93-2.47-10-4.73-15.12-6.72-.75-.29-2.28,1.43-3.15,2,1.75,7.93,8.85,8,15.2,10.77l-5.59,4c4.42,6,9.27,2.71,13.93,1.38.2.43.41.85.61,1.28l-7.14,5.4-16.83,3.35c1.17,1.92,3.34,4,3.42,6.06.08,1.81-2.21,3.73-3.59,5.8h17.58c-2.47,4.77-5.12,5.67-12.29,4.12a29.56,29.56,0,0,1,1.64,5.65c.16,1.71-.43,3.51-.72,5.47,5.9,1.65,12.42-4.78,16.79.34h12.32c-4.07,3.55-6.42,6.64-12,4.68-4-1.41-6.89,3.52-9.42,6.21-2.77,2.95-4.71,2.08-7.21.51-1.59,3.65-1.59,3.65-.88,12.34l-5.89.94.71,3.11c-3.46,2.83-9,1.4-12.17,5.06-1.89,0-4.27.35-6.49-.1-2.07-.43-4-1.7-6.08-2.66a83,83,0,0,1-8.86,5.88c-1.41.72-3.53.05-5.32,0a19.84,19.84,0,0,0,2-4.1c.64-2.63.76-5.38,1.37-8,.26-1.13,1-2.76,1.9-3,1.37-.4,3,.17,6.12.48l-2.42-1.25c-.4-.21-.79-.43-1.52-.84l3.67-2.38c-1.94.12-3.23-.07-4.31.32-5.32,1.88-6.21,6.62-7,11.37-4.67.35-9.23.85-13.8.89-.82,0-2.34-1.86-2.35-2.88a88.5,88.5,0,0,1,.9-9.68l5.89-3.06-9-3.35c2-7.29,10-12.29,7.69-20.44-2.29,2.9.7,8.83-5.65,11.27.44-3.09.79-5.6,1.29-9.09-2.87,4.8-5.26,8.81-7.75,13l-4.27-2.84c.28-1.63.55-3.22,1-5.88-1.3,1.94-1.81,3.24-2.76,4-1.7,1.34-3.49,2.06-4.42-1-.75-2.5-1.79-4.91-2.84-7.74-3.2,3.29-4.72,6.31-3.47,10.81,1.57,5.62-3,9.74-10.45,8.39l8.49,3.18-.06,1-7.06.37c-.15,2.76-.3,5.58-.49,8.91-5.19-2-3.9-6.31-4-9.73L143,151.08l6.4,13.92c-4-1.41-7.17-2.2-6.45-7.05.28-1.86-1-4-2.33-5.74l1.8,7.37c-9.25.47-16.19-5.62-13.85-11.66-2.79-.26-2.79-.26-6.65,3.14l14.81,10.7-.43,1.74c-3.4-.24-6.82-.35-10.2-.74-2.4-.28-4.77-.94-7.27-.77l29,11.17-4.28,4.05a48.94,48.94,0,0,0-7.54.18c-.31.06-.18,2.6-.25,4,4.73-1.26,9.41-2.79,14.22-3.63,1.74-.31,3.76,1.05,5.8,1.69-.16,3.95-.14,6.66-5.83,5.59-5-.94-10.56,1-15-3.05-1.23,1.06-2.45,2.13-3.87,3.37l8.67,4.06c-1.71.55-2.81,1.19-3.91,1.19a67.45,67.45,0,0,1-11.65-.44c-2.14-.37-4-2.27-7-4.07-.4,2.32-.76,4.33-1.25,7.13l-14.43-4,14.2-7.84c-2.62-1.17-4.16-1.72-5.55-2.52s-2.4-2-3.77-2.66a31.8,31.8,0,0,0-5.09-1.38l-.49,1.3c-.58-.93-1.18-1.84-1.71-2.8-.71-1.28-2.1-3.62-1.92-3.75,4.15-3,1.81-6.61,1.08-10.16-.61.2-1.52.74-1.77.53-5.18-4.41-10.29.05-15.41,0-.86,0-1.66-1-2.57-1.27-2.21-.56-4.48-.9-6.7-1.4-1.74-.39-3.45-.88-6.41-1.64,1.9-1.38,2.66-2.33,3.09-2.19,5.77,1.84,8.4-2.36,11.56-5.72.49-.51,1.79-.33,2.71-.36,1.89-.05,3.79,0,6.19,0L87.41,143c4.73.82,7.41-5,12.13-2.78s6.42-1.92,8.93-4.12c.6-.52.09-2.32.09-2.9-3.56.73-6.62,1.26-9.62,2-3.67.93-7.3,2-11,3.07-1.15.32-2.32.6-3.48.9-.14-.58-.57-1.51-.36-1.68.94-.78,2.08-1.32,3.1-2a27.49,27.49,0,0,0,2.08-1.9l-21.06-7.64L67,123.28c3.41-.94,8-1.09,11-3.37s4.08-6.55,6.07-10c-3.75.18-7.57-.3-10.93.71-3.92,1.19-5-.54-6-3.32l6.12-4.08,12-1.64c1.44-2.18,2.64-4,3.83-5.83.24-.37.71-1,.59-1.15-3.27-5.53,1.66-4.15,4.09-4.82a4.16,4.16,0,0,0,0-.87c-1.16-4.79-3.11-7.09-8.18-3.52-2,1.43-5,1.55-9.13,2.73l5.36-9.61c.61-1.11,1.21-2.22,1.81-3.33a25.14,25.14,0,0,0-3.73-1,41.79,41.79,0,0,0-4.8,0l1.54-4.62-8-3.1Q71,61.19,73.26,56l1.61.34-2.72-2.5-4,2.88c.31-3.2.54-5.61.85-8.8l3.59-2.47L64.2,41.57l2.21-2.67-8.67-2.39,5.93-4.11c-3-2.89-3.88-2.59-7.62,2.23.18-3.1.37-6.21.59-9.93-1.34.31-3.23.23-4.21,1.14-.74.68-.3,2.63-.42,4.65l-4,1.37,4.72,6.06-6.78-.59c.73,1.32,1.56,2.19,1.66,3.14a5.8,5.8,0,0,1-.67,3.64c-1.08,1.49-2.68,2.6-4.42,4.21l-4.38.73,8,9.86C41.57,59,37.77,59,34,59.3c-1.22.11-2.35,1.15-3.53,1.76A19.86,19.86,0,0,0,33.38,64c2.53,1.68,5.2,3.14,8.3,5-.79,2.33-2.42,3.76-5.62,2.76-3.92-1.22-6.7.17-8.69,3.64,4.05,2.54,6.71,5.66,6.29,10.92-3.73-2.09-7.15-4.07-10.64-5.9a15,15,0,0,0-4.5-1.59c-.94-.15-2.48.21-2.88.87a3.24,3.24,0,0,0,.42,3c1.69,1.91,2.73,4.71,6.32,4.3,1.46-.17,3.1,1.27,5,2.13-1.84,1.27-3.15,2.17-4.45,3.08,0,.52,0,1,0,1.57l9.75.85A8.6,8.6,0,0,1,31.45,97a18.52,18.52,0,0,1-3.05,2.37c.47.42,1.07,1.27,1.38,1.17a12.68,12.68,0,0,0,4.06-1.78c3-2.3,6-2.84,10-1.15l-3.06,3.62c.78,1.61,1.49,3,2.2,4.5a39.58,39.58,0,0,1-5.62.54,11.37,11.37,0,0,1-3.75-1.15c-6.63-2.8-7.69-2.21-7.81,4.11l7.23,1.35c-9.89,5.38-9.89,5.38-21,1.48-.37,2.57-.72,5-1.16,8,2.27-.15,4-.3,5.82-.37,1.62,0,3.25,0,5.26,0-1,5.16,1.74,7.13,6,7.72v6.56L24,132.47c-.69,5.37.34,6.57,7.85,9.46v7.19c-4-.76-8.66-2.31-13.36-2.36-4.52,0-9.06,1.45-13.39,2.23L0,138V524Zm-16.1-326.28c3.62-.64,7.29-1,10.95-1.4l.66,1.35c-3.59,1.58-7.13,3.31-10.82,4.6-.6.21-1.88-1.52-2.84-2.36C1902.53,199.15,1903.11,197.86,1903.9,197.72Zm-3-69.81c4,.26,8-2.55,11.95-.87l0,2.15h-12C1900.85,128.76,1900.88,128.33,1900.92,127.91Zm-34.36,267.75c.11.23-.63,1.09-1.14,1.35-2.29,1.14-6.61-1.68-7.46-5.4,2.69.76,4.87,1.25,6.94,2A3.86,3.86,0,0,1,1866.56,395.66Zm-6.16-175.51a3.31,3.31,0,0,1,2.24,2.28c.09,1.18-.45,3-1.33,3.53a8.32,8.32,0,0,1-3.58.83l-4.32-6.75A54.3,54.3,0,0,1,1860.4,220.15Zm-25.21,9a37.52,37.52,0,0,1,4.5-.82l.09,1.8c-.6.72-1.07,1.8-1.83,2.08a10.75,10.75,0,0,1-4.47.72c-.65,0-1.2-1.34-1.8-2.07A22.72,22.72,0,0,1,1835.19,229.11ZM1833.37,255c1.7-.77,4.31.42,6.86.78l12.33-5.19.81,1.67-6,3.86c-2.13,1.36-3.11,2.72-1.05,5.14,1.4,1.65,2.21,3.82,3.18,5.8.08.18-.61.7-.91,1.09-.6.81-1.19,1.62-1.82,2.49-3.35-.26-6.83-.92-10.25-.71-4.24.27-5.67-1.64-5.71-5.12l7-3.23c-.17-.52-.33-1.05-.5-1.57l-11.71,2.57-.72-1.47C1827.7,259,1830.27,256.44,1833.37,255ZM1826,411.94l.32,1.59-10.55,4.68c.29-2,.2-5.18.86-5.35C1819.6,412.1,1822.81,412.17,1826,411.94Zm-11.27-132.79c-2.37-2.23-4.14-2.21-5.89.68-.3.48-1.64.62-2.37.43-.33-.08-.2-1.44-.52-2.11-.77-1.62-1.67-3.17-3.34-6.27L1819,278.5C1816.54,278.91,1815.12,279.55,1814.69,279.15Zm-12.1,2.7-9.33-4.63C1797.7,272.09,1798,272.21,1802.59,281.85Zm8.18-33.7c-.47.89-.93,1.79-1.4,2.69l8.41,3.65-1.72.61c-1.87.1-4-.26-5.52.49-.84.41-.74,2.73-.69,4.25-3.27,4.78-6.88.37-11.8-1.24a9.6,9.6,0,0,0,1.94-.1c.35-.08.61-.51,1.57-1.37l-10.29-2.3-.21-1Zm-19.28,150.28,6.94,1.34-.37,1.15-9.81,3.15ZM1786.82,189c.74-.8,2.5-.68,3.79-1-.29,2.28-.57,4.55-.95,7.57C1786.26,193.29,1784.48,191.56,1786.82,189Zm-8.66,84.88v7.2L1773.3,280l.61-4.89Zm-11.59-41.63,4.23,7.11,6.23-8.79c2,10.06-7.2,10.11-9.92,15.06l-1.73-1c.81-1.63,1.61-3.27,2.73-5.52l-12.39,1.28C1756.67,232.43,1765.29,238.5,1766.57,232.26Zm-24.29,64.31c1.91.25,3.46.18,4.78.7a30,30,0,0,1,4.53,2.64c-1.47.7-3.06,2.17-4.36,1.94-1.86-.32-3.54-1.83-5.18-3C1741.8,298.7,1742.15,297.69,1742.28,296.57Zm4.34,122.63v1.5h-10.37C1739.94,415,1740.83,415,1746.62,419.2Zm-76.08-86.71a40,40,0,0,1-3.62-4.52,25,25,0,0,1,4.84-.85,35.14,35.14,0,0,1,6.68.81,10.42,10.42,0,0,1,2.72,1.56c-.68.81-1.21,2-2.07,2.35a37,37,0,0,1-5.7,1.19C1672.39,332.87,1671.11,333,1670.54,332.49Zm20.28,47.34a14.64,14.64,0,0,1-6.41,1.11c-2-.24-3.82-1.6-6.19-2.67,1.06-3.5,1.83-7.58,7.29-3.72,1.16.82,3.6,0,4.52.92S1691.11,379.73,1690.82,379.83Zm29.73-7.7c-5.09-.67-10.22-1.28-15.3-2.17-.31-.06-.23-2.36-.32-3.56C1717.47,363.12,1721.91,364.71,1720.55,372.13Zm-18.8-44.58c1.22-.66,2.62-1.54,3.88-1.44,1.59.13,3.11,1.13,5.93,2.27-2.84.85-4.29,1.53-5.78,1.65a11.93,11.93,0,0,1-4.09-.73C1701.54,329.25,1701.48,327.7,1701.75,327.55Zm13.23,4.64-14.65,1.05C1704,329.86,1713.06,329.7,1715,332.19Zm-21.57,41.34c.23-.82,3.35-.84,5.73-1.34,0,5.15.5,9.28-6,9.34C1693.16,378.76,1692.72,376,1693.41,373.53ZM1690,304.7a2.52,2.52,0,0,1,2,1.46c.14.61-.73,2-1.26,2.1-3.77.37-7.57.47-11.36.65l-.12-2.11C1682.85,306.07,1686.4,305.25,1690,304.7Zm-7,14.76.3,1.77L1665.15,324C1669.88,317.43,1674.19,316.64,1683,319.46Zm-18.08,10.88c-.82,1.49-3.48,3-9,2.5s-10.54-.58-15.54,1.46c-1.5.62-2.68,2-4.37,3.34.74-3-2.88-6.49,1.33-9.05l-2.49-.89c-.07-.4-.13-.8-.2-1.19L1642,324c-.16-1.11-.33-2.29-.51-3.49H1657l-4.93,3.29ZM1658.84,301c-5,.51-10.41,3.29-12.7-3.86C1655.26,294.24,1657.41,294.88,1658.84,301Zm-16.4,8.35c1.68-1.16,4.6.33,5.46-2.56l3.75,2.27c-1.49,3.85-9.17.36-6.38,7.58-4.11-.77-7.61-2.52-9,3.75-1.16-2.68-1.69-3.89-2.34-5.37C1636.89,313.08,1639.69,311.27,1642.44,309.38Zm-13.21-25.64c.56-3.83,1-6.59,1.52-10.33l5.5,8.66Zm2.63-82.17h10.67l.42,1.83-11.36,2.33C1631.68,204.32,1631.75,203.23,1631.86,201.57ZM1630.1,235l8-1.35c-1.29,3.53-2.29,6.25-3.55,9.68l-5.7,1.07C1629.3,241.12,1629.66,238.43,1630.1,235Zm-23.93,57c-.05-.5-.1-1-.16-1.5a64.1,64.1,0,0,1,8.55.09c2.68.36,5.26,1.44,8,2.24C1622.19,295,1615,294.93,1606.17,292Zm-28,146.09c-2.38-.17-4.67-1.71-7-2.64a53.34,53.34,0,0,1,4.24-6c1-1.14,2.73-1.69,4.55-2.76V432l.41,0c.36-1.54.26-3.51,1.2-4.51a6.82,6.82,0,0,1,4.57-1.81c1.67,0,3.35,1,6,1.86l-5.09,1c1.18,1.1,2.13,2,3.26,3.05l-4.65,2.36,4.75,3.55C1586.1,437.79,1582.12,438.4,1578.21,438.12Zm13.08,9.09c3.87-4.53,8.64-4.65,12.39-.76Zm9-36.5c2.94,5.22,2.56,5.74-3.27,6.75-1.94.34-3.72,1.63-5.89,2.63-.21-1.24-.45-2.75-.9-5.43-3.66,1-7.2,1.86-10.73,2.81-2.36.64-4.71,1.34-7.06,2,0-2.4,0-4.8.07-7.2a12.29,12.29,0,0,1,.54-2.41l-5.77,11.17-1.63-.32c0-3.64,0-7.28,0-10.93,0-.18.71-.35.71-.52-.13-5.84,0-5.94,6.69-4.11,3.77-.47,7.55-1.37,11.32-1.33,6.26.07,12.52.75,20.32,1.28l-15.57,8.08,0,.44a22.12,22.12,0,0,0,3.78-1c4.8-2.22,9.54-4.57,14.32-6.85,3.62-1.73,6.12-.06,9.08,3.39Zm-29.23-16.37c0-1.18,1.6-2.34,2.46-3.51.81,1,2,1.89,2.35,3a63.86,63.86,0,0,1,1.67,7C1573.3,400.51,1571,398.28,1571.06,394.34Zm35.87-19.71c-3.41-3.68,5.5-4.18.56-7.3-2-1.22-3.68-5.2-7.21-.3l-2-5.51c11.33-2.62,17.08-.27,22.34,9.22Zm6.93-22.37,0-1.87,13.25.72,0,1.15ZM1612.8,244c.27-3.79.27-3.79,8.16-3.92C1619.86,244,1619,244.36,1612.8,244Zm8.54-13.24-8.77-1.19c0-.44-.07-.88-.1-1.32l10.84-3.93c.11.5.23,1,.35,1.5C1622.93,227.39,1622.2,228.93,1621.34,230.78Zm-10.07-25.47c0-.4,0-.81.07-1.21l2.71-.6-1.66-2.7,11.95,4.23-.42,1.35Zm15,123.49c.06.34.31,1.7.6,3.34h-7.31l8.15,2.17-3,2,2.32,2.81a27.66,27.66,0,0,1-3.49.41c-4.62-.06-9.25,0-13.85-.37s-9.35-1.06-14-1.55a14.66,14.66,0,0,0-2.87.38l2.23,4.83-6.68-2.48c-1.21,1.93-2,3.91-3.38,5.07-.71.58-3.52.1-3.9-.65-2.74-5.42-4.08-1.58-6.81.2l7.64-17.86-7.34-4.42c.2-.59.39-1.19.59-1.79l19.91,6.52-9.62,3.07c2.84,2.25,7.64,1.81,9.72.09,6-5,12-2.15,18.07-1.79C1617.36,329,1621.55,328.8,1626.22,328.8Zm-32-23.63c-4,2.8-6.27.95-7.84-3.18C1589.69,301.68,1593.11,300.39,1594.26,305.17Zm-33.83,9.17,5.79.49c-.41-1.28-.77-2.4-.9-2.82,9.42,0,19,.14,28.54-.08,3.57-.08,7.32,2.61,10.91-.6.32-.28,3,2.13,4.83,3.42l-9.08,5.05c-6-5.89-12.54.66-18.83-.39l-4.46-3.53-1.72,3.65-15.35-3.87Zm13.49,36-.42,1.86-6.35.44c.35-2.1.63-3.78,1.06-6.42Zm-11.5,19.92c.1.48.19,1,.28,1.45,1.08.07,2.47.61,3.18.14,4.13-2.74,6.33-2.17,8.61,2.54-3.94,4.86-9.3,4.45-14.37,3.1-1.71-.46-2.75-3.45-4.51-5.86Zm-25.67,28-6.94-5,.91-1.45c2.7.89,6.67-3.1,8,2.3C1539.06,395.21,1537.47,396.83,1536.75,398.24Zm7.18-108.13c2.45,1.68,4,4.68,5.51,8-2.27-1.42-4.55-2.84-6.81-4.27-1.19-.75-2.37-1.54-3.55-2.31-.82-1-1.63-2-2.47-3C1539.12,289,1542,288.82,1543.93,290.11Zm-5,1.43c-1.08.8-2.11,1.67-3.24,2.37-1.38.85-2.83,2.11-4.3,2.17-1.87.08-4.12-2.46-5.15,1.21l-4.26-4.2C1527.19,288.47,1532.32,288.17,1539,291.54Zm-29-14.32,23,2.84c-1.21,1.91-7.68,3.87-9.64,3.71-4.33-.34-8.72-.11-13.31-.11ZM1499,298l8.13-.73.78,1.53c-1.27,1.25-2.43,3.37-3.82,3.54-1.68.2-3.56-1.25-5.35-2Zm-24.39-173.87c.74-.63,2.19-1.47,2.63-1.17.93.6,2.09,2,1.94,2.89-.53,3.12-1.58,6.14-2.69,10.13C1470.72,130.12,1470.49,127.61,1474.56,124.12ZM1472,145.79l9.63-.68.69,1c-2.23,1.65-4.29,3.81-6.79,4.7-.88.31-2.86-2.51-4.33-3.91ZM1457.78,350.6c-3.09-.43-6.51,4-9.6-.77l9.6-6ZM1426.91,259l-2.58-3.2,1.26-1.28,4.84,2.71,7.64-1.05v.92l5.34-5H1426c-.27-2.67-.51-5.09-.88-8.86,1.82-.38,4.53-.93,7.23-1.51,1.68-.36,3.36-.77,5-1.15l-.06-1.66c-1.3-.94-2.85-1.67-3.82-2.87-.6-.75-.32-2.22-.44-3.36a18,18,0,0,1,3.47.76c.44.18.43,1.61.82,1.7,9.76,2.35,2.29,7.39,1.94,11.52l2.29.71c-1.27-8.53,10.22-5.44,10.74-12.59,1,2.55-.85,6.83,5,5.61-.9,2.57-1.63,4.63-2.42,6.9l5.1,1.39v-8.24l1.65-.15c.65,5.14,1.31,10.27,2,16.07l-6.3-1.46,1.11-2.16c-2.61-2.15-12.22.7-13.32,3.8-2.82,8-4,8.52-12.09,5.55l14,5.92c-2,4.52.7,7.26,4.07,8.51s7.11,1,12.08,1.56l-4.19,6h-10.33c-1.51-2-2.3-4-3.75-4.77-1.7-.88-4-.66-7-1,2-2.51,3.34-4.09,5.57-6.8a58,58,0,0,0-5.8,1c-2.56.72-5,2.08-7.62,2.36-3.4.37-7.3-5.37-6.06-9.73C1424.6,263.06,1422.45,259.15,1426.91,259ZM1385,303l3.94,4.09c-.35.48-.7,1-1.06,1.43-2.73-2.33-7.5-.56-9.62-5.58L1383,302V291.4l9.31,1.78c-4,3.25-1.85,5,.51,6.61C1391,303.25,1389.08,305.87,1385,303Zm19.48-54c-4-1.19-7.79-2.95-11.7-4.42a11.46,11.46,0,0,0-3.55-.77c-2.1-.06-4.2.1-6.3.2-1,.05-2,.19-3,.29.21.94.43,1.88.8,3.48a20,20,0,0,1-3.34-.38c-1.93-.58-3.8-1.34-5.7-2a54.39,54.39,0,0,1,6.12-5.48c1.71-1.16,3.94-1.56,5.94-2.31.28-.11.68-.5.78-.42,6.12,4.62,15,.8,20.67,6.86.82.89,1.7,1.72,2.56,2.58C1406.66,247.4,1405.26,249.18,1404.46,248.94Zm14.15-20.38c-.53,2.9-1.07,5.84-1.68,9.19-8.94-1.41-9.83-2.46-5.69-7.82-3.45-.57-7.28,3.08-10.72-1C1406.85,224.11,1412.94,227.76,1418.61,228.56Zm-17.5-14.77c-5.68,2.2-8.14-1.84-10.9-5.24C1396.57,205.67,1396.72,205.77,1401.11,213.79Zm-19.95-4.85a19.18,19.18,0,0,1,5.72-2.28c.94-.14,2.09,1.18,3.16,1.89-.91.86-1.71,2.1-2.78,2.41a16.82,16.82,0,0,1-5.5.33A4.57,4.57,0,0,1,1381.16,208.94Zm13.6,14.83c-2.63.62,1.74,6.51-3.72,5-3.66-1-9.08,1.86-10.71-5Zm-20.21-15.08c3.79-2,4.5-1.16,5.26,5.5-5,5-8.91-1.07-13.07-.5C1369.18,212.11,1371.74,210.17,1374.55,208.69Zm-52.3,49.95-11.15,3.69c.77-4.92,1.54-9.88,2.42-15.5l9,5.93-3.58,1.14Zm-8.65,12.64h11.18l-3.13,5.12L1313,272Zm10.17,20.42a21.15,21.15,0,0,1-3.87,2.23c-1.84-2.44-2.81-5.05-.82-8.05,1.45-.14,3-.68,4.28-.24a4.15,4.15,0,0,1,2.16,3C1325.61,289.61,1324.63,290.92,1323.77,291.7Zm-1.26-7.31c-1.15,0-2.28.93-3.42,1.46l.07-.11-2,1c-.06-1-.56-2.69-.1-3,2.46-1.8,5.17-3.27,8.16-5.07C1326.65,283.05,1325.65,284.32,1322.51,284.39Zm7.13-6.44c6.58-7.41,7.31-7.5,10-2.25Zm10.62-66.16-12-.73C1330.91,207.18,1336.49,207.56,1340.26,211.79Zm-18.55-2.44c1.24-.51,3.08.44,4.21.66.38,3.58-5.94.12-3.44,5.62l-3.94-2.47C1319.57,211.83,1320.36,209.91,1321.71,209.35Zm0,31.89c.19.3.38.61.56.92l-9.54,3.53c-.66-1.95-1.31-3.91-2-6.1ZM1307.79,243c-.78-3.54-1.41-7.13-1.91-10.73a3.77,3.77,0,0,1,1-2.46,1.89,1.89,0,0,1,1.76.22c.29.5-.12,1.35,0,2,.18.93.39,2.47.92,2.63,5.88,1.78,2.79,3.23-.33,4.64.51,2.38.91,4.28,1.31,6.17l-1,.57A12.2,12.2,0,0,1,1307.79,243Zm5,73.64-6.36,6.2C1305.56,314.2,1305.69,314.06,1312.81,316.67Zm-43.87,41.07-8.5-3.22C1265.46,351.35,1268.4,352.29,1268.94,357.74Zm-40.11-15.37-8.61-4.85C1227.3,333.84,1228.57,334.56,1228.83,342.37Zm-3.92-16.65c1,.14,1.75,1.49,2.63,2.3l-.83,1-8-1.52-.14-1.7A36.79,36.79,0,0,1,1224.91,325.72ZM1181.24,389c-1.32.62-3.5-.59-5.3-1.7,8-4.05,15.89-7.44,25.89-5.11-3.43,5.12-7.9.07-10.81,2.39l6.2,1.44.08.73a8.72,8.72,0,0,1-2.89.38C1189.75,386.15,1185.53,387,1181.24,389Zm19.94,24.75-8.39-5.29,7.55-4.47c.79,2.78,1.57,5.57,2.36,8.35Zm2.52-70.23c-.45-3.31-.48-6.68-.68-10.44,4.15,1.35,7.6,2.46,6,7.64l-3.83,1.05,2,2.73c-.28.25-.61.66-.72.6C1205.52,344.65,1203.79,344.19,1203.7,343.54Zm1.45,5.36c1.11,3.11,1.78,5,2.64,7.35l5.37,1.11C1204.55,359.43,1202.54,357.44,1205.15,348.9Zm9.82,83.4c.92,4.23-2.83,4-5.91,4.82v-8.5C1211.65,430.16,1214.67,430.93,1215,432.3Zm-12-112.22c.78-.92,3.59-.13,5.47-.13-.12.57-.23,1.14-.35,1.71l-2.73.33c1.46,3.82,10.36-1.27,8,6.05l-6.38,3.75C1202.92,330.86,1199.85,323.71,1202.92,320.08Zm-3,30.44v21h-11.17c.14-1.12.29-2.24.37-2.87-3.52-1.78-7.08-3.33-10.33-5.39-.86-.54-1.45-3.38-.94-3.87,1.59-1.51,4-3.64,5.67-3.29,4.9,1.07,7.69-2.45,11.38-4C1196.38,351.49,1198,351.13,1199.92,350.52Zm-15.8-6.8a5.19,5.19,0,0,0,2.37-1.15c3.94-3,7.83-6,12.48-9.65v14.2c-6.41-5.57-11.44.17-17,.41-4.6.21-9.22.05-13.83.05,0-.81-.05-1.61-.07-2.42C1173.43,344.7,1178.78,344.27,1184.12,343.72ZM1150.28,283c1.71-1.11,3.4-3.88,5.77-.79s2.83,7.09.43,9.7c-1.28,1.39-5.45,1.05-6.08-3.16-.13-.87-1.84-1.5-3.23-2.54A19.9,19.9,0,0,1,1150.28,283ZM1133,317.56c.67-2.34.74-3.82,3.17-3.78a4,4,0,0,1,2.84,1.75c2.38,4.14,2.33,5.87.78,8.32-.32.52.36,1.68.69,3C1133.24,326.82,1131.27,323.43,1133,317.56Zm-15.47,159.58,9.91,3c-5.08,3.48-6.51,3.13-10.39-1.13Zm5.92,15.5.32,2.91h7.79c-.07-5.77,2.67-5,6-2.73-.9,1.36-1.53,2.84-2.61,3.79s-2.49,1.05-3.71,1.64a12.52,12.52,0,0,0-4.26,3c-6.67.47-7.53-.23-6-4.91l-7.36,1.54c-.16-.72-.31-1.44-.47-2.15Zm-25-41.15c-2.2,3.6-9.14,3.72-12.26.76ZM1096.61,475l-.21,1.31-16.26-.75C1085.85,468.45,1091.13,474.7,1096.61,475Zm-25.74-70.24.68-.79h9l1.87,2.15c.65,2.78-4.22,5.35-12.58,6l6-4.15Zm-42.13,4-.8-.4,1-2.48c-1-2.05-1.7-3.64-2.43-5.23l1.4-.87,6,4.13Zm14.34-34.14c-.81.12-1.64.14-1.86.16.21,2.75,1.08,5.69.41,8.23-.57,2.18-6.15,1.82-13.81-.45,1.59-6.85,7.85.83,10.19-3.39l-12.31-9.77-2.08-8.74,1.09-.67,6.63,5.49c6-1.65,9.93,3.06,14,8.59C1044.4,374.3,1043.75,374.52,1043.08,374.62Zm-14.81-32.46c3.89-1.65,6.62-4,10.84-1.52.31.17,2.11-2.11,3.15-3.31,1.32-1.51,2.7-4.44,3.83-4.33,2.23.21,4.31,2.08,6.45,3.26l-.51,1.11-5.82.65,6.6,6.24-.86,1.11h-3.27c-.88,5.77-1,5.8-7.61,1.58-5.29,4.5-10.45,8.44-18.07,5.86C1023,348.42,1022.32,344.69,1028.27,342.16Zm-11,4.09-5.08,1.34c.14,1.52.28,3,.44,4.68l5.57-3c-.5,2.57-.34,4.52-1.22,5.66-1.73,2.25-8.33.35-12.17-3.64C1009.5,350.64,1009.47,341.66,1017.26,346.25Zm-20.82-1.13a18.4,18.4,0,0,1,5-3.45,36.16,36.16,0,0,1,7.63-2.6c1.12-.23,2.49.7,4.23,1.25-4.7,3-7.69,5.21-11,6.88-1.67.85-3.85.7-5.8,1C996.5,347.15,996,345.6,996.44,345.12Zm19.82,144.08-3.22,3,3.14,1.76c-.06.36-.13.72-.2,1.09a47.68,47.68,0,0,0-6.4-.56,51,51,0,0,0-6.73,1.19l-8.61-3.29C1000.32,483.89,1004,483.33,1016.26,489.2ZM968.94,364.35c.64-3.78,3.91-3,7.46-2l-3.23,7.81-1.52.32C970.67,368.39,968.64,366.17,968.94,364.35Zm11.93,17.48-5.54,9.26c-4.9-.42-6.34-4.31-7.85-9.26Zm-15.32,40.05,1-.25a43.07,43.07,0,0,1,2.52,6.66c.17.77-1.27,1.89-2,2.85-.74-.9-2-1.77-2.1-2.72A41.43,41.43,0,0,1,965.55,421.88Zm-17.27,52.86-1.82.75-5.64-5.06,8.43-4.62C948.83,469.7,948.56,472.22,948.28,474.74ZM950,425.23c-1.21,6.38-3.37,6.93-9.55,2.47C942.5,423.21,946.05,424.15,950,425.23ZM915.63,422l-.68-.48c.47-1,.93-2,1.3-2.82l-3.72-3.76.71-1.09c4.28,1.15,8.52-4,13.59.27Zm9.74-22.81c-4.43-.21-8.83-.85-13.24-1.33,0-.71,0-1.41,0-2.11,4.31-.14,8.63-.37,13-.33,1,0,2,.89,3.06,1.37C927.21,397.63,926.25,399.23,925.37,399.19Zm-6.14-14.66-.37.61,8.51,6.88c-2.48.92-2.15.43-5.08-1.48-3.4-2.23-7.45-3.47-11.35-5.2l1.48-1.19c-1-2.72-1.87-5-2.71-7.26l1.49-.88,6,4.44c3.73-.25,8.81-1.84,9.9-.4,2,2.66,1.71,7.09,2.54,11.76ZM912,360.9c2.6-1,5.37-.81,7.47-3.82,1.66-2.37,6.77.48,8.75,4.23s-.3,4.94-3.15,5.94c-3.67,1.28-7.35,2.54-11.29,3.89-1.88-1.13-4.57-1.95-4.65-3C908.89,365.57,908.37,362.25,912,360.9Zm-7.54,69.5L904,432l-10.4-2c.36,1.53.62,2.67,1,4.14-4.93-.34-6.48-2.54-4.85-7.83Zm-4.31-54.67c-2.52,4-5.2,4.28-10.66,1.28Zm-2.6,35.69c.22.53.43,1.06.65,1.6l-7.6,5.19c-.78-2.57-1.22-4-1.89-6.24Zm-26.13-31.13,6.17,11.91-1,1.15L866,387.78Zm-6.88,2.56c-.25.54-.51,1.08-.77,1.63-7.82,2.11-7.86,2.09-10.22-7Zm-43.39,27.4L820,407.42l7-2.44c.31.83.62,1.67.92,2.5Zm2.69-11.69,3.49,3.21-7.5,2.65c0-4.9-.07-9.28.08-13.66a2.53,2.53,0,0,1,1.67-1.81,3.58,3.58,0,0,1,2.63,1.11c2,2.3,3.79,4.77,6.15,7.8ZM835,439.86c-.83.28-2.44.18-2.77-.33-.6-1-1.11-2.8-.6-3.46,1-1.34,2.76-2.14,4.21-3.16.44,1,.66,2.27,1.4,3s2.08,1,3.29,1.48A56.69,56.69,0,0,1,835,439.86Zm-16-89c0-3.52,2.46-3.55,4.9-2.74,4.77,1.57,9.47,3.35,14.2,5.05-2.55-1-5.14-1.88-7.65-3-1.89-.82-3.66-1.89-6.59-3.43,3.2-.93,4.76-1.42,6.33-1.82a3.66,3.66,0,0,1,2-.09c3.8,1.34,3.79,1.37,7.38-1,3.25-2.11,3.77-1.71,5.39,2.24.45,1.09,2.49,1.52,3.52,2.09-.13,2.46-.27,5-.4,7.34l-7.51-2.4,6.62,4.41c-.17.57-.35,1.14-.52,1.71l-14.58-4.11-.57,1.83c1.92,1.12,3.9,2.16,5.73,3.4a23.55,23.55,0,0,1,2.87,2.7c-1.4.41-2.79.88-4.21,1.18a8.33,8.33,0,0,1-2,0c-.53,2.49-1,4.65-1.52,7.19l2.72,1.08c-.29,1.53-.56,3-.73,3.89L819,375.61C819,367.71,818.92,359.28,819,350.86ZM804.2,294l7.51,2.19c1.84,12.23.53,14.21-7.89,12.76l4.77-9-5.36.92C803.54,298.65,803.86,296.41,804.2,294ZM811,316.81l-7.4-3.14C810.49,311.06,811.79,311.8,811,316.81Zm-.28,2.31c1.89,12.39.34,15.65-7.63,14.53l4.71-6.32-5.73-6.25Zm-2.35,34.37A4.1,4.1,0,0,1,810,353a7.17,7.17,0,0,1,1.17,2.88,51,51,0,0,1-.3,6L805,358.92l4.17-2.56A23.17,23.17,0,0,1,808.4,353.49ZM811.25,380c.14,1.67.25,3.08.45,5.46-3.84-1.56-8.22,2.16-11.18-3.67Zm.57,16.08c-.11.85-.23,1.7-.34,2.55l-10.1-.46c-.21-.44-.41-.88-.61-1.32,1.26-.68,2.53-1.93,3.79-1.92A44.55,44.55,0,0,1,811.82,396ZM810,407.22l1.86,6.93-11.48-1.92Zm-24-96.08,9.55,4.27c-1.45,1.81-2.57,3.22-3.25,4.08l7.73,2.77-2.44,5.91L794.25,326c-.38,2.67,0,5.88-1.4,7.58-.86,1-4.51-.23-6.63-.44-1.18-6.93-1.08-12.75,4.36-17.22l-5.9,3.6Zm-24.08,41.29c3.28-1.73,5.47-3.46,7.93-4,2.63-.61,5.51-.14,8.33-.14C776.76,352.33,770.07,354.31,761.94,352.43Zm19.95,78.08c-.63,2.89-2.44,5.28-6.26,4.34-1.22-.29-2.57,0-5.14,0l6.66-4.23-1.22-2.12c.31-.42.62-.84.92-1.27C778.63,428.32,782.05,429.8,781.89,430.51Zm-24-114.63c.17-2.57.64-5.12,1-7.48,5.49.25,11,.54,16.55.75,4.09.16,4.72,3.25,4.74,6.18,0,5.13-.46,10.27-.71,14.86l-8.8-4.21,2.71-5.28c-2.34.89-3.73,1.32-5,1.94C762.65,325.33,757.46,322,757.87,315.88ZM722.32,474.15c2.32-1.21,3.52-2.29,4.79-2.38a8.28,8.28,0,0,1,4.72,1c1.16.71,1.75,2.33,2.91,4C730.35,480.64,727.23,474.69,722.32,474.15Zm13.51-4.76-6.77-2.06c1-.85,1.86-2.26,3-2.45C734.52,464.45,736.62,465.14,735.83,469.39Zm-8.65-20.45c-4.2,2.18-6.9-.71-11.36-3,3.34-2.24,5.76-4.94,8.6-5.47s6,1.12,9.31,1.88c0,.11.15-1,.38-2.56l9.88,2.26c.54,2,1,3.86,1.61,6C739.36,445.94,733.08,445.88,727.18,448.94Zm21.6-32c-1.39,2.34-1.9,3.22-2.51,4.24l4.91-.4c-.38,3.91-2.73,4.39-5.54,4.39-6.73,0-13.46.09-20.19.1-1.52,0-3-.19-4.54-.3,0-.47.05-.95.07-1.43l4.78-1.79-6.61-4.57C729.4,415.82,738.44,420.48,748.78,416.93ZM721,396.21H736l.18,1L721,398.7Zm19.63-25.39,3.82,4.72a79.51,79.51,0,0,1-8.13,3.27c-1,.31-2.42-.68-3.64-1.09.62-1,1-2.38,1.91-3.06C736.74,373.06,739.11,371.77,740.65,370.82Zm-20.43-36.4c4.13,3.55,6.85-.17,10-3.28l5.5,4.69-6.31.57q1.33,4.2,2.64,8.36l-3.88,6.35-5.95-2.06c-.34,1.41-.6,2.51-.86,3.61l-1.14.17c-.45-2.21-.89-4.41-1.37-6.82l5-1.52.44-1.59-7.41-3.73Zm1.8,35.93c-5.74,2.1-6.16,1.78-8-6.8ZM689.2,465.5c4.39-1.32,4.39-1.32,9.75,3.36C695.15,469.29,691.82,469.49,689.2,465.5Zm-1.12-43.17,10.49-5.47C697,423.58,694,424.92,688.08,422.33Zm8.71-75h-9.37C690.71,340.62,693.76,345.21,696.79,347.3Zm-54.74,23.45h-11c-.09-.5-.17-1-.25-1.51l12.32-4.42C642.75,367,642.41,368.84,642.05,370.75Zm-12.31-48,5.63,5.87c.23-.08,2.14-1.22,2.58-.81a31.94,31.94,0,0,1,3.84,5.27l-1.55.5-5.87,2.6-4-1.76c-.67-4-1.24-7.45-1.82-10.89Zm-30,68.15c.15-.86.81-1.67.83-2.51a19.72,19.72,0,0,0-.55-3.54c1.11.38,2.25.68,3.32,1.16,4.23,1.89,8.43,3.83,14.12,6.43-4.62,1.84-7.89,3.73-11.39,4.3-2,.33-4.49-1.29-6.53-2.44C599.1,394,599.54,392,599.74,390.88Zm6.07,82c-.25-2.28-.41-3.75-.67-6.21l6.46,1.24c.08.53.16,1.05.25,1.58ZM624,439.07c-3.71-2.73-7.84,3.41-10-2.26-.39-1,.84-3.58,1.93-4.06C620.67,430.64,622.44,433.88,624,439.07Zm-19.34-73.34h14.89C614.12,373,609.84,370.3,604.67,365.73Zm-9-27.24c3.17-4,4.91-9.67,10.42-11.28,2-.59,4.58.19,6.76.82a47.73,47.73,0,0,1,6.26,2.8c0,.31,0,.62.07.93-3.77.37-7.54.77-11.32,1.12-1.3.12-2.71-.14-3.89.28-1.37.49-3.37,1.38-3.57,2.4-.26,1.23,1.09,2.78,1.63,3.95l-7.51,5.66C595,342,594.7,339.75,595.68,338.49Zm-45.45-81.86c-.35-.77.11-2.76.53-2.86,2.6-.6,5.3-.82,8-1.16l.57,1.35a67.77,67.77,0,0,1-6.46,3.67A2.78,2.78,0,0,1,550.23,256.63Zm17,137.35c-3.14,1.48-6.29,2.33-10.69-1.1l8.56-3.5.71,1c-.3.65-.61,1.3-1,2.17l2.57.54C567.32,393.48,567.37,393.92,567.24,394Zm-7-14.55c2.27-4.67,9.47-5.16,13.64,0Zm13.3-30.62-10.27-3.9c.49-1,.93-2,1.48-3.12-2.54.48-5.15,1.77-7,1-1.46-.58-1.95-3.59-2.88-5.53l1.79-.75L558,340c1.75-2.1,3.44-3.65,4.55-5.54,1.65-2.8,2.55-2.77,3.94.19a4.37,4.37,0,0,0,3.3,1.9c3.22,0,3.89,2.17,4.09,4.52A65.35,65.35,0,0,1,573.56,348.81Zm1.31-36a58.07,58.07,0,0,1-6-1.52c-2-.76-2.33-2.1-2.82-4.51-.69-3.38-4.5-6.13-7.26-9.49,3.64-3.12,4.61-2.59,7.48,1.61,1.58,2.3,5.26,3.16,8.63,5Zm-.16-34.2L566,275.7l.1-1.28,8.69.5c-1.25-3.61-1.53-7.27-3.5-9.23-1.81-1.8-5.45-1.76-8-2.45-.29-3.32-.58-6.54-.88-10l12.76,3.21v5.88l-5.47-2.24C575.8,266.38,576.22,268,574.71,278.6Zm.17-29.82c-.65,1.25-4,1.09-6.39,1.62l3.52-9.29C575.11,242.55,576.56,245.54,574.88,248.78Zm-29.06-19.15c2.14-.91,3.95-2.62,5.89-4,2,3.42,4.82.53,7.22.68,2.92.19,6.05-.7,8.78,0,6.79,1.79,8.9,6,7.54,13.71-4.09-.7-5.67-8.84-10.2-5.12-3.18,2.61-9.77,3.9-7.84,11.75L547,242.08c-.94-1.73-1.65-3.68-2.92-5.13C541.12,233.56,541.68,231.39,545.82,229.63ZM537,224.84c.08-.44,1.67-1.05,1.75-1a14.11,14.11,0,0,1,1.48,2.63c.59,1.24,1.12,2.5,1.85,4.15l-4.1.24c-.43-.58-1-1.14-1.1-1.77A14.75,14.75,0,0,1,537,224.84Zm-.36,16.31c.44-3.36,1-6.72,1.45-10.07L538,231c2.77,1.74,1.06,6,4.33,7.6a27.6,27.6,0,0,1,4.62,3.53l4.15,9c-1,0-2.24,0-3.45,0-.71,0-1.44-.48-2.12-.4C539.72,251.38,535.84,247.3,536.63,241.15ZM541,273.89l.71,3.59,4.2-.51c-3.24,3-6.21,6.25-9.06,3.08C533,275.83,540.28,276.67,541,273.89Zm-18.48-62,7.72,7.39C521.57,220.1,520.88,219.36,522.48,211.88ZM478.21,310c-.21-1.17-1-2.69-.52-3.44.91-1.46,2.52-2.49,4.65-4.45.32,3.33.49,5.11.67,6.86h0Zm12.11,51.64c-1.56-2.19-3.14-4.39-4.78-6.67,4.62-1.87,9.38,1.09,9.37,5.8ZM483,309c.51-6.15,2.63-7.66,7.06-5.07l-3.82,5.54Zm-3.7-23.78c.79-.68,1.53-1.41,2.28-2.12l-.83-1.2c3.11-.81,6.4-2.59,9.28-2.08,2,.34,3.47,3.83,5.41,6.21l5-1.61c2.18,3.83-1,7.79-5.23,6.38-.89-.3-1.11-2.27-2-3s-2.32-1-3.72-1.54C487,290,484.1,293,479.22,290c-1-.61-1.58-1.83-2.35-2.77C477.69,286.54,478.53,285.89,479.33,285.2Zm-8.43,4.56c.12-.69,1.9-1.11,2.91-1.65a14.8,14.8,0,0,1,.4,3c-.21,2.86-.57,5.71-.91,9l-3.23-.37C470.32,296.24,470.38,293,470.9,289.76Zm-7.84-141.11c.71-.61,2.07-1.35,2.64-1.06a3.18,3.18,0,0,1,1.49,2.62,82.35,82.35,0,0,1-2.13,8.19C460.11,153.46,459.82,151.43,463.06,148.65Zm6.69,17.41c-4.35,7-4.8,7.05-9.2,1.68ZM412.7,311.69c-1.39.83-4.45-1.11-6.77-1.82.09-.64.19-1.28.28-1.92l9.91-3.94C414.78,307.31,414.43,310.64,412.7,311.69Zm-7.15-27.95a10.55,10.55,0,0,1,1.16-2.87c1,.62,2.3,1,2.94,1.89,1.12,1.55,1.55,3.67,2.82,5,1.06,1.13,2.92,1.5,4.42,2.21C408.5,291.73,405.07,289.54,405.55,283.74Zm-.7-7.38,6.58-3.7c-.67,3.21-1,4.72-1.62,7.71Zm23.34,20-.67-.07c-.18,2.27-.35,4.53-.55,7-3.62-6-3.49-6.57,3.17-13.11.82,1.37,1.57,2.6,2.31,3.83-1.27,1.79-2.53,3.54-4.05,5.65C428.32,298.45,428.26,297.4,428.19,296.34Zm4.35-2.34c1.68-3.49,3.45-6.83,9-4.39C439.27,293,436.46,294.52,432.54,294Zm21.21-19.82c-.41,2.35-.62,4.83-.87,4.84-2.93,0-5.86-.3-8.79-.54.19-1,.37-2,.55-2.94l4.24,1.48ZM401.94,211l1.25,0v6.81l5.26-1c0-2.45-4.84-5.43,1.1-6.7.56-.12.57-2.83.82-4.29l13.13,11.88c-1.44-3.11-2.33-4.82-3-6.6-.34-.87-.79-2.36-.39-2.75a26.27,26.27,0,0,1,6.12-4.73c.49-.25,2.21,2.14,3.5,3.15s3,2,5,3.42c0,.24-.18,1.43-.37,2.91l7.29-.62a22.53,22.53,0,0,0,.67,4.86c.48,1.27,1.61,2.29,2.91,4,1.82-3.34,3.61-6.62,5.39-9.9l1.11.09c.32,2.16.65,4.33,1,6.78-3.34,3.56-6.77,7.45-10.51,11-.88.84-2.84.54-4.76.83.68,7.4-5.2,2.86-8.55,4.11l2.29.73-10.34,6.9.81,1.33,4.21-2.29.35,2.08c1.46-.4,4.1-1.36,4.21-1.12,1.32,2.79,7.92,2.1,3.89,8.3l1.71,0,8.2-5.6,3.83,5.74-7.57,1.85c-.46,3.32-1.85,6.4-7.05,4v4.46L439,261c-1.6,3-2.89,5.44-4.35,8.21h5.65c-.43,6.14-2.53,6.74-8.3,2.92-1.5,2-2.87,4.05-4.51,5.84-.32.35-1.69-.25-2.57-.41a12.28,12.28,0,0,0,.54-2.5c0-1.22.21-2.71-.39-3.62a40.19,40.19,0,0,0-4.3-4.87l.84-1.21c-2.23,0-4.71-.63-6.65.13-4.5,1.75-6.9.26-8.5-4.26l4.26-.8V253c-5.65-1.1-8.37-3.56-9.37-9.19l3.64.7c.09-.24.19-.47.28-.7l-4.26-3.1c.1-1.52.19-3.06.31-4.94l5.71,1.42c-.19,1.34-.39,2.71-.78,5.35,1.12-1.83,1.6-2.62,2.28-3.75l5,4.26,2.83-3.54c-.65-2.1-1.27-4.13-2-6.44l6.21.56c-4.17-5.45-4.72-14.91-15-12.12a2.83,2.83,0,0,0-.18,1,5.86,5.86,0,0,0,.63,1.38l-5.7,1.09C401,220,401.46,215.54,401.94,211Zm-7.48-28.67,1.31,4.84-15.16,6c-.25-.47-.49-1-.73-1.42Zm-13.18-29.49,1.54-.17c.38,1.17,1.39,2.6,1,3.45-1,2.25-.44,6.61-5.88,4.41Zm-25.43,30.3c-4-1.54-4-1.64-1-11.3,2.36,5.3,7.79,1,10.55,4.66.52.69.32,1.92.39,2.49h-11.4C355,180.8,355.38,181.87,355.85,183.18Zm-.12-28c4.72-1.86,9-.23,10.83,3.54l-12.9,2.41L352,159.83C353.24,158.21,354.13,155.77,355.73,155.14Zm-27.1,16.38c-1,1.83-1.64,5-3.48,6-3,1.6-5.41-1.25-6.13-6.55Zm-8-14.77c1.09-2.5,2.31-5.27,3.53-8,5.36.65,7.36,4.65,5.21,10.66Zm-.38,76.81c-.3,2.87-.54,5.07-.79,7.44l-10,.72C311.89,236.16,311.89,236.16,320.24,233.56Zm-.94,84.33c-.26-2.47-.41-3.88-.61-5.85l7-1,.69.87Zm5.37-76.22,1.42-7.61,5.68,3.48Zm9.38-72.92,10.33,2.34c-.35,1-.7,2.15-1.39,4.26l5.94-3.84c.21,1.71.38,3,.53,4.23l-14.8,2.47a103.63,103.63,0,0,1,11.09,1.49c1.39.33,2.4,2.23,3.59,3.41l-4.73,1.41c-.3.09-.59.22-1.94.71,1.87,1,3.1,1.79,4.39,2.41,3.06,1.47,3.65,5.6.56,6.73a22.18,22.18,0,0,1-10.27.64c-3.59-.49-6.83-6.83-6.12-11.1l2.8,1.91C328.35,180.12,334.16,174.65,334.05,168.75Zm-4.14-46.66c5.53.52,5.53.52,3.73,11.71L329,132.13C328.67,128.47,336.91,127.25,329.91,122.09Zm-12.47,11.28c4,2.83,7.82,2.57,13.41-.06-.87,3.27-1.44,5.37-2,7.48-2-.78-3.89-1.7-5.91-2.3-3.05-.9-6.17-1.55-9.25-2.35-.89-.23-1.75-.58-2.67-.9C313,131.72,314.34,131.15,317.44,133.37ZM306.38,173c1.82-1.26,3.65-3.37,5.3.93,1,2.61,4.28,4.35,6.53,6.48l-.45,2-12-1.33.13-1.1,3-1.64-.34-1.14h-6C304.15,175.4,305.07,173.91,306.38,173Zm-5,57.72c4.9-1,9.79-3.34,14.84-1.43.07.63.15,1.25.22,1.88l-16.42,3C300.64,232.56,300.84,230.84,301.38,230.73Zm-21.17,104.1.74,1.47c-1.55,1-3.11,2.72-4.65,2.71-2.62,0-4.54-1.58-2.84-5.23Zm-13.7-214.07c-3.27,1.9-7.31.12-9.06-3.44-.19-.39-.85-.52-1.16-.89a5.06,5.06,0,0,1-.54-1.32c3.33,0,6.47-.14,9.58.07,1.39.09,2.73.89,4.1,1.37C268.48,118,267.85,120,266.51,120.76Zm2.34-18.16.3-1.32-4.91,1-.39-1c2.76-1.47,5.39-3.72,8.33-4.24,4.6-.83,3.88,4.1,5.28,6.59.17.29-2.57,3.06-3.23,2.8C272.24,105.64,270.62,103.94,268.85,102.6ZM195.49,296.74c4.17-4.36,6.59-3.94,8.72,2.18Zm9.51-6.86c-1.86-.27-4.76.1-5.38-.91-1.74-2.87-2.54-6.31-3.71-9.52,1.13-.3,2.47-1.12,3.34-.77,1.05.42,1.71,1.84,2.53,2.83L200.49,278c3.69.6,6.69.94,9.63,1.61,2.71.61,5.34,1.56,8.54,2.52-6.78,4.78.38,9.85-.43,14.69l-6.63,1.94C208.06,297.16,205.27,294.47,205,289.88Zm11-24.49c-4.92,4.2-4.92,4.2,4.61,10.8-6,1.74-20-6.88-23.73-15.26,2.47-1.31,5.17-3.95,7.54-3.67s4.47,3.43,6.88,5.49L210,266.83Zm-.92-38.58-10-3c-2.11-4.62-4.07-8.94-6.67-14.63,4.18,2.75,7.16,4.61,10,6.62,2.45,1.71,3.82,5.83,8,3.36.27,1.33.94,2.73.72,4S215.85,225.51,215.07,226.81Zm6.1,96.44-1.82-4.32c-4.82-.06-4.82-.06-2.72-8.95l6.49,12.29Zm17.5-26.75-7.62-1-1.6-6.43,5.26-1.51c-5.18-.46-8.94-2.56-10.91-7.7,7,1.06,17,8.45,19.69,14ZM262.21,284c-3.15,5.4-4.82,11.12-11.11,11.89-6.48.79-7.44-5.79-11.09-8.89,3.13-3.05,3.13-3.05,4.62,1.78,3.61-2,7-4.38,10.82-5.83C257.12,282.3,259.51,283.51,262.21,284Zm-2.94-117.57-9-3.11C254.77,160,257.75,161.27,259.27,166.42Zm-55.41,24.69L195,182.93c.19-.11.52-.36.49-.42-1.77-3.66-1.27-4.76,2.91-4.66,3.36.08,6.69.87,10.79,1.46l-7-6.06,10.4-7.17c1,3.68,2.89,6.42,7.46,4.32.31,3,.55,5.33.89,8.61l13.86-1.77-3.2,6.34-10.49,2.34,0,1.63c2.75.76,6,.87,8.17,2.4,4.62,3.19,8.66,7.21,13.09,10.7,1.71,1.34,3.84,2.15,6.57,3.63l1.17,2.9c-2,2.17-7.6,3-14.27,2.17a38.3,38.3,0,0,0,3,3.07,42.9,42.9,0,0,0,3.73,2.46l-3.75,4.27,6.77,7.1c-5.31.58-5.58,1.13-3.37,4.51a65.05,65.05,0,0,1-4.77,4.5c-1.25,1-2.87,2.26-4.18,2.12a48.53,48.53,0,0,1-8.76-2.23c-3.88-1.17-2.35-3.41-2.09-6.45.69-7.77-2.29-13.76-9.06-17.84,6.83-2.55,16.57,4.89,17.9,12.84-.18-1.48.18-3.41-.63-4.34-2.77-3.2-4.27-7.67-9.14-8.91-2.9-.74-3.5-2.83-1.52-5.32a8.86,8.86,0,0,0,2-3.46c-2.35,2.13-4.45,5.36-7.16,6-1.84.45-4.56-2.71-7.08-4.38.46-1.28,1-2.62,1.53-4.19-5,5.34-10.78,3.23-15.68-5.78ZM197,229l2,8.28c.52-1.42.85-2.33,1.44-3.93l2.31,3.66c.29-2.16.58-4.32,1-7.72L213.92,236c-1.74,1.93-2.89,3.2-4.24,4.68l4.59,2.84c-5.61.91-8.9-2-11.58-5.94l2.37,4.08c-2.05,1.89-3.42,4-5.31,4.68s-4.41.16-6.65.16l-.24-1.22,2.7-2C190.46,238.37,194.34,234.37,197,229Zm-3,30c2.38,2.61-.37,4.92-2,6.38-1.33,1.17-4.06.76-6.16,1.05-.21-.63-.41-1.26-.61-1.89Zm-28.41-57.94c-1.08,3.59-1.31,7.67-5.52,5.85-.95-.41-1.18-2.5-1.74-3.81ZM132.06,319c-.95-.15-2.24-3.27-2-4.8.76-4.85,4.46-2.29,8.58-2.86C135.56,314.58,137.18,319.83,132.06,319Zm11-124.75c1.1,1.74.19,4.74.19,7.17l-1.74.15c-.53-.95-1.07-1.9-1.73-3.09-5.94,4.76-6.63-2-9.5-4C135.67,191,140.78,190.66,143.05,194.28Zm-11.56-3.05c-3.87,2.72-4.08,9.91-12,9.76C123.52,196.37,124.48,190.26,131.49,191.23ZM107.16,332.9c-.92.65-.52,3.05-.93,4.61s-1.08,3.12-2,5.57l-2.61-3.91c-.6,1.65-1.39,3.85-2,5.51L85.27,338l1.48-1.21-2.59-2.29,1-.75-12-5,.39-1.6c7.17,0,14.33.05,21.5,0,3,0,6.06-.43,9.08-.4a6.42,6.42,0,0,1,3,1.26C109.82,329.55,109.91,331,107.16,332.9Zm7.57-45c-.85,2.24-1.07,5.36-2.7,6.56-3.7,2.73-7.78,1.32-10.87-.61-.18-2.2-.33-4-.6-7.18l6.81,1.67c-.09.49-.17,1-.26,1.49l5.83-3Zm-6.57-86.57c.1.32.19.64.28,1l-10.08,6.77-.64-1.79-15.43,1.63c-.06-.58-.13-1.16-.2-1.74ZM73.1,240.85l3.68-2.13a8.54,8.54,0,0,0,13.62-.05l3.33.61c1.45,5.25,2.74,9.93,4.07,14.72-5.24,1.4-10.55-5.47-15.64.32-.44-3.26.11-6.84-1.43-8.59-1.71-1.94-5.32-2.21-8.11-3.21Zm-66.7.45-.25-1.79h9.61C15.3,243.65,13.23,244.08,6.4,241.3Zm10-67.62,3.53,5H8.75Zm-1.91,14.83c-6.34,3-10.32,1.51-10.55-3.92Z" transform="translate(0 -11.84)"/><path class="cls-1" d="M1774.63,167.47h.16l-.08-.05Z" transform="translate(0 -11.84)"/><path class="cls-1" d="M1316.63,254.62l2.27-.72-.65-.92Z" transform="translate(0 -11.84)"/><path class="cls-1" d="M1096.67,320.36l1.41,1c.89-1.74,1.76-3.45,2.62-5.16Z" transform="translate(0 -11.84)"/><path class="cls-1" d="M1456.77,168.21Z" transform="translate(0 -11.84)"/></svg>